<?xml version="1.0" encoding="UTF-8"?>
<svg xmlns="http://www.w3.org/2000/svg" xmlns:xlink="http://www.w3.org/1999/xlink" width="80pt" height="80pt" viewBox="0 0 80 80" version="1.1">
<g id="surface59042">
<path style=" stroke:none;fill-rule:nonzero;fill:rgb(15.686275%,23.529412%,48.627451%);fill-opacity:1;" d="M 15 11 C 12.800781 11 11 12.800781 11 15 L 11 23.808594 L 7 33.808594 L 7 39 C 7 41.40625 8.726562 43.429688 11 43.898438 L 11 69 L 69 69 L 69 43.898438 C 71.273438 43.429688 73 41.40625 73 39 L 73 33.808594 L 69 23.808594 L 69 15 C 69 12.800781 67.199219 11 65 11 Z M 15 13 L 65 13 C 66.117188 13 67 13.882812 67 15 L 67 24.191406 L 71 34.191406 L 71 39 C 71 40.667969 69.667969 42 68 42 C 66.332031 42 65 40.667969 65 39 L 63 39 C 63 40.667969 61.667969 42 60 42 C 58.332031 42 57 40.667969 57 39 L 55 39 C 55 40.667969 53.667969 42 52 42 C 50.332031 42 49 40.667969 49 39 L 47 39 C 47 40.667969 45.667969 42 44 42 C 42.332031 42 41 40.667969 41 39 L 39 39 C 39 40.667969 37.667969 42 36 42 C 34.332031 42 33 40.667969 33 39 L 31 39 C 31 40.667969 29.667969 42 28 42 C 26.332031 42 25 40.667969 25 39 L 23 39 C 23 40.667969 21.667969 42 20 42 C 18.332031 42 17 40.667969 17 39 L 15 39 C 15 40.667969 13.667969 42 12 42 C 10.332031 42 9 40.667969 9 39 L 9 34.191406 L 13 24.191406 L 13 15 C 13 13.882812 13.882812 13 15 13 Z M 17 15 C 15.894531 15 15 15.894531 15 17 C 15 18.105469 15.894531 19 17 19 C 18.105469 19 19 18.105469 19 17 C 19 15.894531 18.105469 15 17 15 Z M 23 15 C 21.894531 15 21 15.894531 21 17 C 21 18.105469 21.894531 19 23 19 C 24.105469 19 25 18.105469 25 17 C 25 15.894531 24.105469 15 23 15 Z M 29 15 C 27.894531 15 27 15.894531 27 17 C 27 18.105469 27.894531 19 29 19 C 30.105469 19 31 18.105469 31 17 C 31 15.894531 30.105469 15 29 15 Z M 16 21 C 15.449219 21 15 21.449219 15 22 C 15 22.550781 15.449219 23 16 23 C 16.550781 23 17 22.550781 17 22 C 17 21.449219 16.550781 21 16 21 Z M 20 21 C 19.449219 21 19 21.449219 19 22 C 19 22.550781 19.449219 23 20 23 C 20.550781 23 21 22.550781 21 22 C 21 21.449219 20.550781 21 20 21 Z M 24 21 C 23.449219 21 23 21.449219 23 22 C 23 22.550781 23.449219 23 24 23 C 24.550781 23 25 22.550781 25 22 C 25 21.449219 24.550781 21 24 21 Z M 28 21 C 27.449219 21 27 21.449219 27 22 C 27 22.550781 27.449219 23 28 23 C 28.550781 23 29 22.550781 29 22 C 29 21.449219 28.550781 21 28 21 Z M 32 21 C 31.449219 21 31 21.449219 31 22 C 31 22.550781 31.449219 23 32 23 C 32.550781 23 33 22.550781 33 22 C 33 21.449219 32.550781 21 32 21 Z M 36 21 C 35.449219 21 35 21.449219 35 22 C 35 22.550781 35.449219 23 36 23 C 36.550781 23 37 22.550781 37 22 C 37 21.449219 36.550781 21 36 21 Z M 40 21 C 39.449219 21 39 21.449219 39 22 C 39 22.550781 39.449219 23 40 23 C 40.550781 23 41 22.550781 41 22 C 41 21.449219 40.550781 21 40 21 Z M 44 21 C 43.449219 21 43 21.449219 43 22 C 43 22.550781 43.449219 23 44 23 C 44.550781 23 45 22.550781 45 22 C 45 21.449219 44.550781 21 44 21 Z M 48 21 C 47.449219 21 47 21.449219 47 22 C 47 22.550781 47.449219 23 48 23 C 48.550781 23 49 22.550781 49 22 C 49 21.449219 48.550781 21 48 21 Z M 52 21 C 51.449219 21 51 21.449219 51 22 C 51 22.550781 51.449219 23 52 23 C 52.550781 23 53 22.550781 53 22 C 53 21.449219 52.550781 21 52 21 Z M 56 21 C 55.449219 21 55 21.449219 55 22 C 55 22.550781 55.449219 23 56 23 C 56.550781 23 57 22.550781 57 22 C 57 21.449219 56.550781 21 56 21 Z M 60 21 C 59.449219 21 59 21.449219 59 22 C 59 22.550781 59.449219 23 60 23 C 60.550781 23 61 22.550781 61 22 C 61 21.449219 60.550781 21 60 21 Z M 64 21 C 63.449219 21 63 21.449219 63 22 C 63 22.550781 63.449219 23 64 23 C 64.550781 23 65 22.550781 65 22 C 65 21.449219 64.550781 21 64 21 Z M 12 34 C 11.449219 34 11 34.449219 11 35 C 11 35.550781 11.449219 36 12 36 C 12.550781 36 13 35.550781 13 35 C 13 34.449219 12.550781 34 12 34 Z M 16 34 C 15.449219 34 15 34.449219 15 35 C 15 35.550781 15.449219 36 16 36 C 16.550781 36 17 35.550781 17 35 C 17 34.449219 16.550781 34 16 34 Z M 20 34 C 19.449219 34 19 34.449219 19 35 C 19 35.550781 19.449219 36 20 36 C 20.550781 36 21 35.550781 21 35 C 21 34.449219 20.550781 34 20 34 Z M 24 34 C 23.449219 34 23 34.449219 23 35 C 23 35.550781 23.449219 36 24 36 C 24.550781 36 25 35.550781 25 35 C 25 34.449219 24.550781 34 24 34 Z M 28 34 C 27.449219 34 27 34.449219 27 35 C 27 35.550781 27.449219 36 28 36 C 28.550781 36 29 35.550781 29 35 C 29 34.449219 28.550781 34 28 34 Z M 32 34 C 31.449219 34 31 34.449219 31 35 C 31 35.550781 31.449219 36 32 36 C 32.550781 36 33 35.550781 33 35 C 33 34.449219 32.550781 34 32 34 Z M 36 34 C 35.449219 34 35 34.449219 35 35 C 35 35.550781 35.449219 36 36 36 C 36.550781 36 37 35.550781 37 35 C 37 34.449219 36.550781 34 36 34 Z M 40 34 C 39.449219 34 39 34.449219 39 35 C 39 35.550781 39.449219 36 40 36 C 40.550781 36 41 35.550781 41 35 C 41 34.449219 40.550781 34 40 34 Z M 44 34 C 43.449219 34 43 34.449219 43 35 C 43 35.550781 43.449219 36 44 36 C 44.550781 36 45 35.550781 45 35 C 45 34.449219 44.550781 34 44 34 Z M 48 34 C 47.449219 34 47 34.449219 47 35 C 47 35.550781 47.449219 36 48 36 C 48.550781 36 49 35.550781 49 35 C 49 34.449219 48.550781 34 48 34 Z M 52 34 C 51.449219 34 51 34.449219 51 35 C 51 35.550781 51.449219 36 52 36 C 52.550781 36 53 35.550781 53 35 C 53 34.449219 52.550781 34 52 34 Z M 56 34 C 55.449219 34 55 34.449219 55 35 C 55 35.550781 55.449219 36 56 36 C 56.550781 36 57 35.550781 57 35 C 57 34.449219 56.550781 34 56 34 Z M 60 34 C 59.449219 34 59 34.449219 59 35 C 59 35.550781 59.449219 36 60 36 C 60.550781 36 61 35.550781 61 35 C 61 34.449219 60.550781 34 60 34 Z M 64 34 C 63.449219 34 63 34.449219 63 35 C 63 35.550781 63.449219 36 64 36 C 64.550781 36 65 35.550781 65 35 C 65 34.449219 64.550781 34 64 34 Z M 68 34 C 67.449219 34 67 34.449219 67 35 C 67 35.550781 67.449219 36 68 36 C 68.550781 36 69 35.550781 69 35 C 69 34.449219 68.550781 34 68 34 Z M 16 41.839844 C 16.910156 43.113281 18.324219 44 20 44 C 21.675781 44 23.089844 43.113281 24 41.839844 C 24.910156 43.113281 26.324219 44 28 44 C 29.675781 44 31.089844 43.113281 32 41.839844 C 32.910156 43.113281 34.324219 44 36 44 C 37.675781 44 39.089844 43.113281 40 41.839844 C 40.910156 43.113281 42.324219 44 44 44 C 45.675781 44 47.089844 43.113281 48 41.839844 C 48.910156 43.113281 50.324219 44 52 44 C 53.675781 44 55.089844 43.113281 56 41.839844 C 56.910156 43.113281 58.324219 44 60 44 C 61.675781 44 63.089844 43.113281 64 41.839844 C 64.722656 42.847656 65.765625 43.609375 67 43.882812 L 67 67 L 13 67 L 13 43.882812 C 14.234375 43.609375 15.277344 42.847656 16 41.839844 Z M 16 41.839844 "/>
</g>
</svg>
