<?xml version="1.0" encoding="UTF-8"?>
<svg xmlns="http://www.w3.org/2000/svg" xmlns:xlink="http://www.w3.org/1999/xlink" width="24pt" height="24pt" viewBox="0 0 24 24" version="1.1">
<g id="surface3748430">
<path style=" stroke:none;fill-rule:nonzero;fill:rgb(15.686275%,23.529412%,48.627451%);fill-opacity:1;" d="M 5.25 3 C 4.015625 3 3 4.015625 3 5.25 L 3 6.75 C 3 7.984375 4.015625 9 5.25 9 L 9.25 9 C 10.484375 9 11.5 7.984375 11.5 6.75 L 11.5 5.25 C 11.5 4.015625 10.484375 3 9.25 3 Z M 14.75 3 C 13.515625 3 12.5 4.015625 12.5 5.25 L 12.5 11.75 C 12.5 12.984375 13.515625 14 14.75 14 L 18.75 14 C 19.984375 14 21 12.984375 21 11.75 L 21 5.25 C 21 4.015625 19.984375 3 18.75 3 Z M 5.25 4.5 L 9.25 4.5 C 9.671875 4.5 10 4.828125 10 5.25 L 10 6.75 C 10 7.171875 9.671875 7.5 9.25 7.5 L 5.25 7.5 C 4.828125 7.5 4.5 7.171875 4.5 6.75 L 4.5 5.25 C 4.5 4.828125 4.828125 4.5 5.25 4.5 Z M 14.75 4.5 L 18.75 4.5 C 19.171875 4.5 19.5 4.828125 19.5 5.25 L 19.5 11.75 C 19.5 12.171875 19.171875 12.5 18.75 12.5 L 14.75 12.5 C 14.328125 12.5 14 12.171875 14 11.75 L 14 5.25 C 14 4.828125 14.328125 4.5 14.75 4.5 Z M 5.25 10 C 4.015625 10 3 11.015625 3 12.25 L 3 18.75 C 3 19.984375 4.015625 21 5.25 21 L 9.25 21 C 10.484375 21 11.5 19.984375 11.5 18.75 L 11.5 12.25 C 11.5 11.015625 10.484375 10 9.25 10 Z M 5.25 11.5 L 9.25 11.5 C 9.671875 11.5 10 11.828125 10 12.25 L 10 18.75 C 10 19.171875 9.671875 19.5 9.25 19.5 L 5.25 19.5 C 4.828125 19.5 4.5 19.171875 4.5 18.75 L 4.5 12.25 C 4.5 11.828125 4.828125 11.5 5.25 11.5 Z M 14.75 15 C 13.515625 15 12.5 16.015625 12.5 17.25 L 12.5 18.75 C 12.5 19.984375 13.515625 21 14.75 21 L 18.75 21 C 19.984375 21 21 19.984375 21 18.75 L 21 17.25 C 21 16.015625 19.984375 15 18.75 15 Z M 14.75 16.5 L 18.75 16.5 C 19.171875 16.5 19.5 16.828125 19.5 17.25 L 19.5 18.75 C 19.5 19.171875 19.171875 19.5 18.75 19.5 L 14.75 19.5 C 14.328125 19.5 14 19.171875 14 18.75 L 14 17.25 C 14 16.828125 14.328125 16.5 14.75 16.5 Z M 14.75 16.5 "/>
</g>
</svg>
