<svg width="40" height="40" viewBox="0 0 40 40" fill="none" xmlns="http://www.w3.org/2000/svg">
<path d="M20 40C31.0457 40 40 31.0457 40 20C40 8.9543 31.0457 0 20 0C8.9543 0 0 8.9543 0 20C0 31.0457 8.9543 40 20 40Z" fill="#152148"/>
<path d="M16.008 27C16.032 26.316 16.11 25.716 16.242 25.2C16.386 24.672 16.584 24.21 16.836 23.814C17.088 23.406 17.388 23.034 17.736 22.698C18.096 22.362 18.528 22.02 19.032 21.672L20.4 20.736C20.856 20.424 21.18 20.196 21.372 20.052C21.576 19.896 21.762 19.722 21.93 19.53C22.11 19.326 22.248 19.098 22.344 18.846C22.44 18.582 22.488 18.276 22.488 17.928C22.488 17.664 22.44 17.406 22.344 17.154C22.26 16.902 22.122 16.674 21.93 16.47C21.75 16.254 21.51 16.086 21.21 15.966C20.922 15.834 20.58 15.768 20.184 15.768C19.788 15.768 19.44 15.822 19.14 15.93C18.84 16.038 18.588 16.2 18.384 16.416C18.18 16.62 18.018 16.878 17.898 17.19C17.778 17.502 17.7 17.868 17.664 18.288H16.224C16.26 17.58 16.392 16.974 16.62 16.47C16.848 15.966 17.142 15.564 17.502 15.264C17.874 14.952 18.282 14.73 18.726 14.598C19.182 14.466 19.668 14.4 20.184 14.4C20.748 14.4 21.264 14.484 21.732 14.652C22.212 14.808 22.626 15.042 22.974 15.354C23.322 15.654 23.592 16.026 23.784 16.47C23.976 16.902 24.072 17.388 24.072 17.928C24.072 18.444 23.994 18.894 23.838 19.278C23.694 19.662 23.496 19.992 23.244 20.268C23.004 20.544 22.782 20.76 22.578 20.916C22.374 21.072 21.984 21.348 21.408 21.744L20.04 22.68C19.596 22.98 19.224 23.268 18.924 23.544C18.636 23.82 18.414 24.078 18.258 24.318C18.102 24.558 17.994 24.78 17.934 24.984C17.874 25.188 17.832 25.404 17.808 25.632H24.216V27H16.008Z" fill="white"/>
</svg>
