<svg width="20" height="18" viewBox="0 0 20 18" fill="none" xmlns="http://www.w3.org/2000/svg">
<path d="M20 3.02199C18.7419 3.07997 18.7694 3.07524 18.6272 3.08714L19.3723 0.959306C19.3723 0.959306 17.0465 1.81487 16.4569 1.96791C14.9084 0.576158 12.6068 0.514665 10.9613 1.52602C9.6138 2.35442 8.89053 3.77699 9.13177 5.43974C6.50925 5.07582 4.29962 3.83269 2.55508 1.73705L2.00333 1.07436L1.59103 1.8315C1.06995 2.78822 0.896912 3.88213 1.10367 4.91164C1.18851 5.334 1.3327 5.73683 1.53244 6.11403L1.05911 5.93062L1.00296 6.72148C0.946045 7.52486 1.21353 8.46266 1.7186 9.22987C1.86081 9.44594 2.04391 9.68321 2.276 9.91728L2.0314 9.87975L2.32986 10.786C2.72217 11.9766 3.53699 12.8978 4.59442 13.4099C3.53836 13.858 2.68524 14.144 1.28296 14.6052L0 15.027L1.185 15.6749C1.63681 15.9219 3.23334 16.747 4.81079 16.9945C8.31726 17.5444 12.2652 17.0965 14.9229 14.7029C17.1616 12.6868 17.8961 9.81886 17.7435 6.8344C17.7205 6.38258 17.8442 5.95137 18.092 5.62041C18.5884 4.95772 19.9969 3.02641 20 3.02199ZM17.155 4.9185C16.7435 5.46797 16.5373 6.16972 16.5742 6.89421C16.7282 9.90462 15.9091 12.2392 14.1396 13.8328C12.0724 15.6946 8.73825 16.4253 4.99222 15.8377C4.31381 15.7313 3.61267 15.4931 3.03238 15.2553C4.20807 14.8508 5.11597 14.4902 6.58218 13.7962L8.629 12.8274L6.36917 12.6828C5.28671 12.6135 4.38538 12.0889 3.83133 11.2372C4.12552 11.2201 4.40918 11.1725 4.69162 11.0937L6.84692 10.4935L4.67361 9.96123C3.61755 9.70259 3.01559 9.07072 2.69653 8.58611C2.48703 8.26765 2.35016 7.94142 2.26807 7.64067C2.48596 7.69911 2.74002 7.74077 3.14972 7.78136L5.16128 7.98033L3.5675 6.73705C2.41913 5.84135 1.95892 4.49568 2.29629 3.20204C5.88028 6.91939 10.0883 6.64 10.5119 6.73827C10.4187 5.83266 10.4163 5.83052 10.3918 5.74431C9.84939 3.82674 11.0382 2.85307 11.5744 2.52348C12.6944 1.83516 14.4722 1.7314 15.7036 2.86543C15.9695 3.11018 16.3292 3.20647 16.6658 3.12285C16.9679 3.04778 17.2159 2.96828 17.4586 2.88176L16.9533 4.32494L17.5984 4.32539C17.4767 4.48866 17.3306 4.68413 17.155 4.9185Z" fill="white"/>
</svg>
