<svg width="60" height="40" viewBox="0 0 60 40" fill="none" xmlns="http://www.w3.org/2000/svg">
<path d="M59.0527 8.59353C59.576 8.59353 60 8.18941 60 7.69058V4.17675C60 1.87369 58.0343 0 55.618 0H4.38201C1.96571 0.000111696 0 1.87369 0 4.17686V35.8231C0 38.1263 1.96571 40 4.38201 40H55.6182C58.0345 40 60.0002 38.1263 60 35.8231V10.6204C60 10.1215 59.576 9.71741 59.0527 9.71741C58.5293 9.71741 58.1053 10.1215 58.1053 10.6204V35.823C58.1053 37.1304 56.9894 38.194 55.618 38.194H4.38201C3.01056 38.194 1.89469 37.1304 1.89469 35.823V4.17686C1.89469 2.86957 3.01056 1.80601 4.38201 1.80601H55.618C56.9894 1.80601 58.1053 2.86957 58.1053 4.17686V7.69069C58.1053 8.18941 58.5293 8.59353 59.0527 8.59353Z" fill="#0D0B0B"/>
<path d="M21.8653 16.6533H19.9392V18.6737H21.8653V18.6739C22.6278 18.6739 23.1578 18.4153 23.1578 17.6883C23.1578 16.9121 22.5891 16.6533 21.8653 16.6533Z" fill="#0D0B0B"/>
<path d="M21.8007 13.4874H19.9391V15.1751H21.8007C22.2143 15.1751 22.7829 14.9656 22.7829 14.3374C22.7829 13.6969 22.3045 13.4874 21.8007 13.4874Z" fill="#0D0B0B"/>
<path d="M30.602 14.1526H30.5762L29.5293 17.2327H31.6232L30.602 14.1526Z" fill="#0D0B0B"/>
<path d="M15.1924 23.6078H13.8752V24.9737H15.2634C15.762 24.9737 16.029 24.7193 16.029 24.2613C16.029 23.8117 15.6552 23.6078 15.1924 23.6078Z" fill="#0D0B0B"/>
<path d="M21.2184 24.0236H21.2007L20.4798 26.1447H21.9218L21.2184 24.0236Z" fill="#0D0B0B"/>
<path d="M51.9552 23.6078H50.638V24.9737H52.0267C52.525 24.9737 52.7918 24.7193 52.7918 24.2613C52.7919 23.8117 52.4182 23.6078 51.9552 23.6078Z" fill="#0D0B0B"/>
<path d="M56.3201 27.5598C56.3038 27.4487 56.2885 27.2746 56.2747 27.0398C56.2718 26.9897 56.2693 26.9467 56.2667 26.913C56.266 26.9011 56.265 26.8893 56.2638 26.8774C56.2185 26.3847 56.1142 25.9704 55.9717 25.6218C56.2111 25.1492 56.3423 24.6138 56.3423 24.0489C56.3423 23.2196 56.0693 22.4911 55.5865 21.9155C55.7842 21.7636 55.9513 21.5728 56.0736 21.3511C56.4015 20.758 56.3576 20.0407 55.9599 19.488L52.9835 15.3522L55.3371 12.9642C55.6645 12.6396 55.8658 12.1988 55.8658 11.7129C55.8658 10.7156 55.0179 9.90701 53.9714 9.90701H53.9709H50.985C50.4321 9.90701 49.9068 10.1372 49.5468 10.5372L49.4635 10.6298C49.1179 10.1908 48.5674 9.90701 47.9475 9.90701H45.5432C45.249 9.90701 44.9713 9.97291 44.7229 10.087C44.4745 9.9728 44.197 9.90701 43.9026 9.90701H41.6403C40.957 9.90701 40.3579 10.2519 40.0246 10.7693C39.6811 10.235 39.0698 9.90701 38.4092 9.90701H35.94C34.8938 9.90701 34.0453 10.7156 34.0453 11.7129V12.2352L33.5924 11.0804C33.3154 10.3747 32.608 9.90701 31.8175 9.90701H29.3748C28.5844 9.90701 27.877 10.3748 27.5999 11.0804L26.9281 12.7928C26.6576 11.8477 26.0353 11.0802 25.1074 10.5768C24.2868 10.1317 23.2375 9.90601 21.9886 9.90601H21.9883C21.9383 9.90601 21.8881 9.90634 21.8382 9.90712H17.5354C17.2748 9.90712 17.0267 9.95727 16.8008 10.048C16.574 9.95672 16.3247 9.90612 16.0633 9.90612H6.04197C4.99548 9.90612 4.14728 10.7147 4.14728 11.712V13.6246C4.14728 13.8983 4.2129 14.1569 4.3274 14.3896C4.21314 14.6221 4.14728 14.8807 4.14728 15.1546V17.0672C4.14728 17.3409 4.2129 17.5995 4.3274 17.8322C4.21314 18.0648 4.14728 18.3233 4.14728 18.5972V20.5096C4.14728 20.8448 4.24466 21.1577 4.41177 21.4266C4.24478 21.6956 4.14728 22.0085 4.14728 22.3437V23.7011C4.14728 24.6984 4.99548 25.507 6.04197 25.507H6.04326V28.4012C6.04326 29.3986 6.8917 30.2071 7.93796 30.2071H9.59335C10.1036 30.2071 10.5658 30.0139 10.9064 29.7014C11.2471 30.014 11.7092 30.2071 12.2195 30.2071H13.8754C14.3232 30.2071 14.7347 30.059 15.0591 29.8114C15.3906 30.0644 15.8069 30.2071 16.2428 30.2071H17.881C17.9049 30.2071 17.9287 30.2055 17.9526 30.2045C17.9673 30.2048 17.9816 30.2071 17.9964 30.2071H19.6968C20.2973 30.2071 20.8489 29.9373 21.2011 29.4995C21.5529 29.9372 22.1042 30.2071 22.7049 30.2071H24.4319C24.5114 30.2071 24.5898 30.2022 24.6675 30.193C24.7422 30.2016 24.8177 30.2071 24.8949 30.2071H26.4527C26.8686 30.2071 27.2531 30.0794 27.5655 29.863C27.8838 30.0829 28.2714 30.2071 28.6782 30.2071H30.3783C30.8012 30.2071 31.1905 30.0736 31.5057 29.8502C32.1863 30.1629 32.9959 30.3344 33.9031 30.3344C34.8163 30.3344 35.6454 30.1715 36.339 29.8648C36.6507 30.0792 37.032 30.207 37.4458 30.207H39.1016C40.1264 30.207 40.9594 29.4307 40.9932 28.4617C41.027 29.4307 41.8595 30.207 42.8847 30.207H48.0385C48.2019 30.207 48.3592 30.1852 48.5103 30.1483C48.6614 30.1854 48.8187 30.207 48.9821 30.207H50.6377C51.0857 30.207 51.4973 30.0589 51.8217 29.8112C52.1532 30.0642 52.5695 30.207 53.0054 30.207H54.6433C55.4027 30.207 56.0887 29.7747 56.3866 29.1086C56.6136 28.6012 56.5814 28.0326 56.3201 27.5598ZM6.04197 13.3487V11.7121H15.6405H16.0632V13.6247H6.04197V13.3487ZM6.04197 16.7911V15.4307V15.1546H16.0632V17.0672H6.04197V16.7911ZM6.04197 18.8729V18.5968H16.0632V20.5093H15.6405H6.04197V18.8729ZM11.4896 23.7011H10.3246H9.59335V28.4012H7.93796V23.7011H6.04197V22.3437H10.3246H11.4896V23.7011V23.7011ZM16.2427 28.4015V28.4014C16.1941 28.332 16.1594 28.2169 16.1335 28.0891C16.1335 28.0887 16.1335 28.0882 16.1333 28.0878C16.0893 27.8692 16.0719 27.6137 16.0603 27.4802C16.0587 27.4628 16.0572 27.447 16.056 27.4341C16.0113 26.8232 15.9049 26.1955 15.1304 26.1955H13.8753V28.4012H12.2193V25.3678V22.3435H13.3843H15.4594C15.5295 22.3435 15.5992 22.3454 15.6688 22.3493C15.716 22.352 15.7626 22.3567 15.8092 22.3612C15.8315 22.3632 15.8541 22.3642 15.8763 22.3668C15.9331 22.3733 15.9894 22.382 16.0453 22.3912C16.0567 22.3931 16.0685 22.3943 16.0797 22.3961C16.9553 22.5505 17.6846 23.0559 17.6846 24.0489C17.6846 24.4985 17.5287 24.9319 17.2141 25.2388L17.214 25.2389C17.213 25.2398 17.2121 25.2405 17.2113 25.2414C17.1794 25.2722 17.1458 25.3014 17.1108 25.3294C17.0995 25.3384 17.0876 25.3469 17.076 25.3557C17.0503 25.3754 17.0237 25.3942 16.996 25.4124C16.9823 25.4214 16.9681 25.4304 16.9538 25.439C16.9253 25.4563 16.896 25.4725 16.866 25.4881C16.8526 25.4953 16.8391 25.5025 16.8253 25.5093C16.781 25.5306 16.7356 25.5505 16.6879 25.5681V25.5848C16.7259 25.5934 16.7619 25.6044 16.7968 25.6163C16.808 25.6204 16.8189 25.6246 16.8299 25.6288C16.8537 25.638 16.8768 25.6478 16.8993 25.6586C16.9105 25.6638 16.9216 25.6691 16.9324 25.6746C16.958 25.6882 16.9826 25.7027 17.0067 25.7181C17.0117 25.7213 17.0171 25.7242 17.022 25.7275L17.0221 25.7276C17.4331 26.0053 17.5701 26.5675 17.6136 27.0354C17.6314 27.2899 17.6583 28.1806 17.8808 28.4015H16.2427V28.4015ZM23.0001 28.4014H22.7048L22.3135 27.3152H20.097L19.7633 28.2207L19.6967 28.4014H17.9963L20.3728 22.3437H22.055L24.4317 28.4014H23.0001V28.4014ZM24.0677 20.1578C24.0675 20.1579 24.0672 20.1579 24.067 20.158C23.9205 20.2201 23.7657 20.2728 23.6042 20.3173C23.6015 20.3179 23.5988 20.3188 23.5961 20.3196C23.4372 20.3628 23.2718 20.398 23.1002 20.4258C23.0942 20.4268 23.0884 20.4278 23.0822 20.4287C22.9988 20.4418 22.9143 20.4535 22.8282 20.4633C22.8202 20.4643 22.8122 20.4649 22.8043 20.4658C22.7238 20.4747 22.6425 20.4822 22.56 20.4882C22.552 20.4887 22.5439 20.4895 22.5359 20.4901C22.4522 20.496 22.3674 20.5002 22.2819 20.5034C22.2641 20.5039 22.2464 20.5046 22.2286 20.505C22.1425 20.5076 22.0562 20.5094 21.9686 20.5094H17.9579H17.5352V11.7131H17.9579H21.8525C21.8974 11.7125 21.9429 11.712 21.988 11.712C21.9906 11.712 21.9928 11.7121 21.9951 11.7121C22.0153 11.7121 22.0357 11.7123 22.0561 11.7126C22.085 11.7128 22.1141 11.7129 22.1431 11.7136C22.1642 11.7139 22.1853 11.7148 22.2064 11.7153C22.2347 11.7161 22.2629 11.7167 22.2911 11.7178C22.3128 11.7185 22.3346 11.7197 22.3563 11.7207C22.384 11.7221 22.4116 11.7233 22.4391 11.7249C22.4608 11.7262 22.4826 11.7278 22.5043 11.7292C22.532 11.7311 22.5596 11.7328 22.5869 11.7351C22.609 11.7369 22.6305 11.7389 22.6523 11.7411C22.6795 11.7436 22.7067 11.7459 22.7338 11.7487C22.7558 11.7511 22.7777 11.7536 22.7996 11.7561C22.8265 11.7591 22.8531 11.7623 22.8797 11.7656C22.9016 11.7684 22.9234 11.7718 22.945 11.7748C22.9714 11.7784 22.9978 11.7823 23.0239 11.7863C23.0457 11.7896 23.0675 11.7934 23.0892 11.7971C23.115 11.8015 23.1408 11.8059 23.1664 11.8108C23.1881 11.8148 23.2095 11.8189 23.2309 11.8234C23.2565 11.8285 23.2818 11.8338 23.3072 11.8392C23.3284 11.8438 23.3493 11.8487 23.3703 11.8536C23.3952 11.8596 23.4204 11.8656 23.4451 11.8717C23.4661 11.877 23.4868 11.8827 23.5074 11.8884C23.5318 11.895 23.5561 11.9018 23.5802 11.9088C23.6007 11.9149 23.6209 11.9211 23.6411 11.9274C23.6651 11.9347 23.6888 11.9424 23.7124 11.9503C23.7323 11.957 23.752 11.964 23.7719 11.9711C23.7951 11.9793 23.818 11.9879 23.8411 11.9965C23.8605 12.0041 23.8799 12.0118 23.8991 12.0195C23.9216 12.0287 23.944 12.0381 23.9659 12.0477C23.9849 12.0558 24.0036 12.0644 24.0221 12.0729C24.0438 12.0828 24.0654 12.0932 24.0868 12.1038C24.1051 12.1129 24.123 12.122 24.1408 12.1314C24.1618 12.1425 24.1826 12.154 24.2029 12.1654C24.2205 12.1752 24.238 12.1853 24.2551 12.1954C24.2751 12.2075 24.2949 12.2198 24.3145 12.2323C24.3313 12.243 24.3481 12.2538 24.3644 12.2649C24.3836 12.2779 24.4024 12.2914 24.421 12.3049C24.437 12.3166 24.453 12.3281 24.4685 12.3402C24.4867 12.3542 24.5042 12.3687 24.5219 12.3833C24.537 12.3958 24.5522 12.4083 24.5668 12.4213C24.584 12.4365 24.6006 12.4521 24.6171 12.4677C24.6313 12.4811 24.6453 12.4946 24.6592 12.5084C24.6752 12.5247 24.6907 12.5415 24.706 12.5583C24.7193 12.5726 24.7326 12.587 24.7453 12.6018C24.7603 12.6192 24.7744 12.6373 24.7888 12.6553C24.8008 12.6706 24.8131 12.6858 24.8247 12.7016C24.8385 12.7202 24.8517 12.7396 24.8647 12.759C24.8756 12.7754 24.887 12.7913 24.8974 12.8081C24.9099 12.828 24.9214 12.8487 24.9333 12.8694C24.9431 12.8866 24.9532 12.9036 24.9626 12.9215C24.9739 12.9429 24.9841 12.965 24.9947 12.9872C25.0032 13.0053 25.0122 13.0231 25.0203 13.0415C25.0302 13.0644 25.0391 13.0883 25.0482 13.112C25.0556 13.1309 25.0632 13.1495 25.0699 13.169C25.0785 13.1934 25.0857 13.2189 25.0935 13.2441C25.0997 13.264 25.1061 13.2833 25.1115 13.3038C25.1186 13.3303 25.1245 13.3578 25.1306 13.3852C25.1352 13.4054 25.1403 13.4252 25.1442 13.4459C25.1499 13.475 25.154 13.5055 25.1587 13.5357C25.1617 13.5557 25.1655 13.5752 25.1681 13.5956C25.1723 13.6299 25.175 13.6658 25.1779 13.7014C25.1795 13.7187 25.1816 13.7354 25.1826 13.753C25.1858 13.8069 25.1876 13.862 25.1876 13.9187C25.1876 14.7071 24.6963 15.3477 23.9726 15.6926C24.0451 15.7126 24.1151 15.7365 24.1835 15.7624C24.2034 15.7699 24.2226 15.7782 24.2422 15.7861C24.2924 15.8067 24.3415 15.8288 24.3893 15.8522C24.4073 15.8612 24.4252 15.8698 24.4428 15.8792C24.5026 15.9107 24.5607 15.944 24.6163 15.9802C24.6185 15.9817 24.6207 15.9828 24.6229 15.9844C24.6849 16.025 24.744 16.0689 24.8006 16.1152C24.8053 16.119 24.8096 16.1231 24.8142 16.1272C24.8654 16.1699 24.914 16.2149 24.9603 16.2617C24.966 16.2674 24.9717 16.2731 24.9771 16.2789C25.1295 16.4366 25.2546 16.6169 25.3496 16.8152C25.3496 16.8153 25.3496 16.8155 25.3499 16.8156C25.4873 17.1032 25.5626 17.4274 25.5626 17.7749C25.5622 19.0405 24.9713 19.7747 24.0677 20.1578ZM30.378 28.4014H29.8138H28.6782L26.4703 24.6259H26.4525V28.4014H26.3259H24.8947V24.4254V22.3435H26.5947L28.8022 26.0765H28.8203V22.3435H29.9113H30.378V28.4014ZM28.9734 18.9326L28.3917 20.5094H26.5782H25.9231L29.3744 11.713H31.8171L34.045 17.3912L35.2684 20.5094H32.8153H32.7607L32.192 18.9326H28.9734V18.9326ZM34.9778 28.4154C34.9756 28.4159 34.9736 28.4164 34.9716 28.4169C34.9055 28.4321 34.8386 28.4456 34.7707 28.4574C34.768 28.4579 34.7656 28.4583 34.763 28.4588C34.6302 28.4817 34.4945 28.4986 34.357 28.5099C34.3476 28.5108 34.3381 28.5116 34.3286 28.5124C34.2644 28.5173 34.2 28.5212 34.1352 28.5238C34.1243 28.5242 34.1132 28.5247 34.1024 28.525C34.0361 28.5273 33.9696 28.5287 33.9031 28.5287C33.836 28.5287 33.7696 28.5269 33.7035 28.5243C33.6906 28.5239 33.6778 28.5233 33.6649 28.5228C33.6006 28.5198 33.5368 28.5154 33.4737 28.51C33.4628 28.509 33.4522 28.5079 33.4413 28.5069C33.379 28.5009 33.3171 28.4939 33.2559 28.4853C33.2522 28.4849 33.2481 28.4843 33.2445 28.4839C33.1805 28.4747 33.1174 28.4639 33.055 28.4518C33.0447 28.4498 33.0342 28.4478 33.0239 28.4458C32.9618 28.4334 32.9004 28.4196 32.8402 28.4043C32.835 28.4028 32.8301 28.4015 32.8249 28.4C32.7654 28.3846 32.7067 28.3675 32.6493 28.3491C32.6447 28.3476 32.6401 28.3464 32.6358 28.3449C32.5771 28.3258 32.5198 28.3049 32.4636 28.2826C32.4557 28.2795 32.4478 28.2763 32.4399 28.273C32.3831 28.25 32.3274 28.2255 32.2733 28.1992C32.2733 28.1992 32.2731 28.1992 32.2731 28.1991C31.602 27.871 31.1491 27.2825 31.1438 26.365H32.2731H32.7993C32.835 27.0776 33.2978 27.3065 34.001 27.3065C34.4993 27.3065 35.0158 27.137 35.0158 26.6873C35.0158 26.1527 34.1078 26.0509 33.1911 25.8048C33.1194 25.7852 33.0472 25.7646 32.9755 25.7429C32.9618 25.7388 32.9481 25.7346 32.9346 25.7305C32.7057 25.6603 32.4806 25.5771 32.274 25.4722C32.2738 25.4721 32.2736 25.472 32.2733 25.4719C31.7382 25.2005 31.3309 24.7832 31.3309 24.0572C31.3309 23.2859 31.8059 22.7888 32.4382 22.5078C32.4447 22.5051 32.4509 22.502 32.4572 22.4992C32.5116 22.4757 32.567 22.4538 32.6235 22.4332C32.6315 22.4303 32.6393 22.4273 32.6473 22.4245C32.7042 22.4043 32.7621 22.3856 32.8207 22.3686C32.8269 22.3667 32.8331 22.3651 32.8391 22.3633C33.1896 22.263 33.5646 22.2162 33.9213 22.2162C34.2169 22.2162 34.5128 22.2486 34.793 22.3152H34.7931C35.7112 22.5332 36.46 23.1208 36.4671 24.1674H35.5513H34.8115C34.8381 23.616 34.2952 23.4378 33.7877 23.4378C33.4318 23.4378 32.9866 23.5566 32.9866 23.9554C32.9866 24.422 33.9034 24.5068 34.8291 24.7529C34.8901 24.7693 34.9512 24.7865 35.0119 24.8044C35.0153 24.8055 35.0188 24.8065 35.0222 24.8075C35.8715 25.0598 36.6717 25.4829 36.6717 26.5003C36.6714 27.6318 35.9277 28.1963 34.9778 28.4154ZM42.1284 23.6077H40.9901H39.1019V24.8465H40.9901H41.7187V26.0679H40.9901H39.1019V28.4014H38.0563H37.446V22.3437H37.8611H40.9902H42.1284V23.6077V23.6077ZM41.4333 20.5096V20.5095L38.2278 15.0273H38.2021V20.5095H37.1626H35.9397V17.0646V11.7131H38.4088L41.6144 17.1339H41.64V11.7131H43.6482H43.9024V20.5096H43.6482H41.4333V20.5096ZM48.0387 28.4014H47.0878H42.8849V27.4895V22.3438H44.0231H47.0878H47.9498V23.6078H47.0878H44.5404V24.6684H47.0878H47.6559V25.89H47.0878H44.5404V27.044H47.0878H48.0387V28.4014ZM48.9295 16.8137L47.9471 17.7993V20.5095H45.7969H45.5428V11.7131H45.7969H47.9471V15.0889L50.9846 11.7131H53.9706L50.558 15.1751L54.3971 20.5096H51.4115L48.9295 16.8137ZM53.0058 28.4014C52.8631 28.1976 52.8368 27.6037 52.8188 27.4341C52.7744 26.8232 52.6677 26.1955 51.8932 26.1955H50.6382V28.4012H49.9336H48.9826V22.3435H49.8446H52.2226C53.3442 22.3435 54.4476 22.8273 54.4476 24.0487C54.4476 24.7021 54.1186 25.3213 53.4508 25.5676V25.5844C54.1272 25.7373 54.3232 26.4582 54.3765 27.0353C54.3945 27.2898 54.4209 28.1805 54.6437 28.4014H53.0058Z" fill="#0D0B0B"/>
</svg>
