<svg width="60" height="40" viewBox="0 0 60 40" fill="none" xmlns="http://www.w3.org/2000/svg">
<path d="M57.2477 36.355H2.72675C1.2204 36.355 0 37.1686 0 38.1737C0 39.177 1.2204 39.9907 2.72675 39.9907H57.2464C58.7528 39.9907 59.9732 39.177 59.9732 38.1737C59.9719 37.1686 58.7515 36.355 57.2477 36.355Z" fill="black"/>
<path d="M6.13398 31.629C4.62763 31.629 3.40723 32.4426 3.40723 33.4469C3.40723 34.4511 4.62763 35.2656 6.13398 35.2656H53.8393C55.3457 35.2656 56.5661 34.4511 56.5661 33.4469C56.5661 32.4426 55.3457 31.629 53.8393 31.629H53.1589V15.2719H53.8393C54.5938 15.2719 55.2014 14.8651 55.2014 14.3639C55.2014 13.8626 54.5912 13.4558 53.8393 13.4558H6.13398C5.3808 13.4558 4.77188 13.8626 4.77188 14.3639C4.77188 14.8651 5.38208 15.2719 6.13398 15.2719H6.81566V31.6282H6.13398V31.629ZM47.7054 15.2719V31.6282H39.5277V15.2719H47.7054ZM34.0742 15.2719V31.6282H25.8965V15.2719H34.0742ZM12.2666 15.2719H20.4443V31.6282H12.2666V15.2719Z" fill="black"/>
<path d="M2.7268 11.8219H57.2465C57.2554 11.8219 57.2656 11.8219 57.2733 11.8219C58.7809 11.8219 60.0001 11.0083 60.0001 10.004C60.0001 9.20574 59.229 8.52916 58.158 8.28406L31.1075 0.169337C30.3964 -0.0434247 29.5833 -0.0434247 28.8709 0.169337L1.60853 8.34704C0.435362 8.69937 -0.209305 9.54871 0.0613271 10.3861C0.330683 11.2236 1.4413 11.8219 2.7268 11.8219Z" fill="black"/>
</svg>
