<?xml version="1.0" encoding="UTF-8"?>
<svg xmlns="http://www.w3.org/2000/svg" xmlns:xlink="http://www.w3.org/1999/xlink" width="80pt" height="80pt" viewBox="0 0 80 80" version="1.1">
<g id="surface33200">
<path style=" stroke:none;fill-rule:nonzero;fill:rgb(15.686275%,23.529412%,48.627451%);fill-opacity:1;" d="M 14 10 C 11.800781 10 10 11.800781 10 14 L 10 22 C 10 24.199219 11.800781 26 14 26 L 16 26 C 16.359375 26.003906 16.695312 25.816406 16.878906 25.503906 C 17.058594 25.191406 17.058594 24.808594 16.878906 24.496094 C 16.695312 24.183594 16.359375 23.996094 16 24 L 14 24 C 12.882812 24 12 23.117188 12 22 L 12 14 C 12 12.882812 12.882812 12 14 12 L 66 12 C 67.117188 12 68 12.882812 68 14 L 68 22 C 68 23.117188 67.117188 24 66 24 L 64 24 C 63.640625 23.996094 63.304688 24.183594 63.121094 24.496094 C 62.941406 24.808594 62.941406 25.191406 63.121094 25.503906 C 63.304688 25.816406 63.640625 26.003906 64 26 L 66 26 C 68.199219 26 70 24.199219 70 22 L 70 14 C 70 11.800781 68.199219 10 66 10 Z M 20 24 C 19.449219 24 19 24.449219 19 25 C 19 25.550781 19.449219 26 20 26 C 20.550781 26 21 25.550781 21 25 C 21 24.449219 20.550781 24 20 24 Z M 24 24 C 23.449219 24 23 24.449219 23 25 C 23 25.550781 23.449219 26 24 26 C 24.550781 26 25 25.550781 25 25 C 25 24.449219 24.550781 24 24 24 Z M 28 24 C 27.449219 24 27 24.449219 27 25 C 27 25.550781 27.449219 26 28 26 C 28.550781 26 29 25.550781 29 25 C 29 24.449219 28.550781 24 28 24 Z M 32 24 C 31.449219 24 31 24.449219 31 25 C 31 25.550781 31.449219 26 32 26 C 32.550781 26 33 25.550781 33 25 C 33 24.449219 32.550781 24 32 24 Z M 36 24 C 35.449219 24 35 24.449219 35 25 C 35 25.550781 35.449219 26 36 26 C 36.550781 26 37 25.550781 37 25 C 37 24.449219 36.550781 24 36 24 Z M 40 24 C 39.449219 24 39 24.449219 39 25 C 39 25.550781 39.449219 26 40 26 C 40.550781 26 41 25.550781 41 25 C 41 24.449219 40.550781 24 40 24 Z M 44 24 C 43.449219 24 43 24.449219 43 25 C 43 25.550781 43.449219 26 44 26 C 44.550781 26 45 25.550781 45 25 C 45 24.449219 44.550781 24 44 24 Z M 48 24 C 47.449219 24 47 24.449219 47 25 C 47 25.550781 47.449219 26 48 26 C 48.550781 26 49 25.550781 49 25 C 49 24.449219 48.550781 24 48 24 Z M 52 24 C 51.449219 24 51 24.449219 51 25 C 51 25.550781 51.449219 26 52 26 C 52.550781 26 53 25.550781 53 25 C 53 24.449219 52.550781 24 52 24 Z M 56 24 C 55.449219 24 55 24.449219 55 25 C 55 25.550781 55.449219 26 56 26 C 56.550781 26 57 25.550781 57 25 C 57 24.449219 56.550781 24 56 24 Z M 60 24 C 59.449219 24 59 24.449219 59 25 C 59 25.550781 59.449219 26 60 26 C 60.550781 26 61 25.550781 61 25 C 61 24.449219 60.550781 24 60 24 Z M 14 29 C 11.800781 29 10 30.800781 10 33 L 10 66 C 10 68.199219 11.800781 70 14 70 L 16 70 C 16.359375 70.003906 16.695312 69.816406 16.878906 69.503906 C 17.058594 69.191406 17.058594 68.808594 16.878906 68.496094 C 16.695312 68.183594 16.359375 67.996094 16 68 L 14 68 C 12.882812 68 12 67.117188 12 66 L 12 33 C 12 31.882812 12.882812 31 14 31 L 41 31 C 42.117188 31 43 31.882812 43 33 L 43 66 C 43 67.117188 42.117188 68 41 68 L 40 68 C 39.640625 67.996094 39.304688 68.183594 39.121094 68.496094 C 38.941406 68.808594 38.941406 69.191406 39.121094 69.503906 C 39.304688 69.816406 39.640625 70.003906 40 70 L 41 70 C 43.199219 70 45 68.199219 45 66 L 45 33 C 45 30.800781 43.199219 29 41 29 Z M 52 29 C 49.800781 29 48 30.800781 48 33 L 48 44 C 48 46.199219 49.800781 48 52 48 L 53 48 C 53.359375 48.003906 53.695312 47.816406 53.878906 47.503906 C 54.058594 47.191406 54.058594 46.808594 53.878906 46.496094 C 53.695312 46.183594 53.359375 45.996094 53 46 L 52 46 C 50.882812 46 50 45.117188 50 44 L 50 33 C 50 31.882812 50.882812 31 52 31 L 66 31 C 67.117188 31 68 31.882812 68 33 L 68 44 C 68 45.117188 67.117188 46 66 46 L 65 46 C 64.640625 45.996094 64.304688 46.183594 64.121094 46.496094 C 63.941406 46.808594 63.941406 47.191406 64.121094 47.503906 C 64.304688 47.816406 64.640625 48.003906 65 48 L 66 48 C 68.199219 48 70 46.199219 70 44 L 70 33 C 70 30.800781 68.199219 29 66 29 Z M 57 46 C 56.449219 46 56 46.449219 56 47 C 56 47.550781 56.449219 48 57 48 C 57.550781 48 58 47.550781 58 47 C 58 46.449219 57.550781 46 57 46 Z M 61 46 C 60.449219 46 60 46.449219 60 47 C 60 47.550781 60.449219 48 61 48 C 61.550781 48 62 47.550781 62 47 C 62 46.449219 61.550781 46 61 46 Z M 52 51 C 49.800781 51 48 52.800781 48 55 L 48 66 C 48 68.199219 49.800781 70 52 70 L 53 70 C 53.359375 70.003906 53.695312 69.816406 53.878906 69.503906 C 54.058594 69.191406 54.058594 68.808594 53.878906 68.496094 C 53.695312 68.183594 53.359375 67.996094 53 68 L 52 68 C 50.882812 68 50 67.117188 50 66 L 50 55 C 50 53.882812 50.882812 53 52 53 L 66 53 C 67.117188 53 68 53.882812 68 55 L 68 66 C 68 67.117188 67.117188 68 66 68 L 65 68 C 64.640625 67.996094 64.304688 68.183594 64.121094 68.496094 C 63.941406 68.808594 63.941406 69.191406 64.121094 69.503906 C 64.304688 69.816406 64.640625 70.003906 65 70 L 66 70 C 68.199219 70 70 68.199219 70 66 L 70 55 C 70 52.800781 68.199219 51 66 51 Z M 20 68 C 19.449219 68 19 68.449219 19 69 C 19 69.550781 19.449219 70 20 70 C 20.550781 70 21 69.550781 21 69 C 21 68.449219 20.550781 68 20 68 Z M 24 68 C 23.449219 68 23 68.449219 23 69 C 23 69.550781 23.449219 70 24 70 C 24.550781 70 25 69.550781 25 69 C 25 68.449219 24.550781 68 24 68 Z M 28 68 C 27.449219 68 27 68.449219 27 69 C 27 69.550781 27.449219 70 28 70 C 28.550781 70 29 69.550781 29 69 C 29 68.449219 28.550781 68 28 68 Z M 32 68 C 31.449219 68 31 68.449219 31 69 C 31 69.550781 31.449219 70 32 70 C 32.550781 70 33 69.550781 33 69 C 33 68.449219 32.550781 68 32 68 Z M 36 68 C 35.449219 68 35 68.449219 35 69 C 35 69.550781 35.449219 70 36 70 C 36.550781 70 37 69.550781 37 69 C 37 68.449219 36.550781 68 36 68 Z M 57 68 C 56.449219 68 56 68.449219 56 69 C 56 69.550781 56.449219 70 57 70 C 57.550781 70 58 69.550781 58 69 C 58 68.449219 57.550781 68 57 68 Z M 61 68 C 60.449219 68 60 68.449219 60 69 C 60 69.550781 60.449219 70 61 70 C 61.550781 70 62 69.550781 62 69 C 62 68.449219 61.550781 68 61 68 Z M 61 68 "/>
</g>
</svg>
