<?xml version="1.0" encoding="UTF-8"?>
<svg xmlns="http://www.w3.org/2000/svg" xmlns:xlink="http://www.w3.org/1999/xlink" width="80pt" height="80pt" viewBox="0 0 80 80" version="1.1">
<g id="surface57353">
<path style=" stroke:none;fill-rule:nonzero;fill:rgb(15.686275%,23.529412%,48.627451%);fill-opacity:1;" d="M 21 8 C 19.355469 8 18 9.355469 18 11 L 18 20 C 17.996094 20.359375 18.183594 20.695312 18.496094 20.878906 C 18.808594 21.058594 19.191406 21.058594 19.503906 20.878906 C 19.816406 20.695312 20.003906 20.359375 20 20 L 20 11 C 20 10.433594 20.433594 10 21 10 L 59 10 C 59.566406 10 60 10.433594 60 11 L 60 52.089844 L 56.109375 48.203125 L 43.261719 43.261719 L 48.203125 56.109375 L 48.351562 56.261719 L 60 67.910156 L 60 69 C 60 69.566406 59.566406 70 59 70 L 21 70 C 20.433594 70 20 69.566406 20 69 L 20 60 C 20.003906 59.730469 19.898438 59.46875 19.707031 59.277344 C 19.515625 59.085938 19.253906 58.980469 18.984375 58.984375 C 18.433594 58.996094 17.992188 59.449219 18 60 L 18 69 C 18 70.644531 19.355469 72 21 72 L 59 72 C 60.371094 72 61.527344 71.054688 61.882812 69.789062 L 64.597656 72.503906 L 65.304688 73.214844 L 70.070312 77.976562 L 70.609375 78.515625 C 72.578125 80.484375 75.796875 80.484375 77.765625 78.515625 L 78.519531 77.761719 C 80.488281 75.796875 80.488281 72.578125 78.519531 70.609375 L 62 54.089844 L 62 11 C 62 9.355469 60.644531 8 59 8 Z M 19 23 C 18.449219 23 18 23.449219 18 24 C 18 24.550781 18.449219 25 19 25 C 19.550781 25 20 24.550781 20 24 C 20 23.449219 19.550781 23 19 23 Z M 19 27 C 18.449219 27 18 27.449219 18 28 C 18 28.550781 18.449219 29 19 29 C 19.550781 29 20 28.550781 20 28 C 20 27.449219 19.550781 27 19 27 Z M 19 31 C 18.449219 31 18 31.449219 18 32 C 18 32.550781 18.449219 33 19 33 C 19.550781 33 20 32.550781 20 32 C 20 31.449219 19.550781 31 19 31 Z M 19 35 C 18.449219 35 18 35.449219 18 36 C 18 36.550781 18.449219 37 19 37 C 19.550781 37 20 36.550781 20 36 C 20 35.449219 19.550781 35 19 35 Z M 19 39 C 18.449219 39 18 39.449219 18 40 C 18 40.550781 18.449219 41 19 41 C 19.550781 41 20 40.550781 20 40 C 20 39.449219 19.550781 39 19 39 Z M 19 43 C 18.449219 43 18 43.449219 18 44 C 18 44.550781 18.449219 45 19 45 C 19.550781 45 20 44.550781 20 44 C 20 43.449219 19.550781 43 19 43 Z M 19 47 C 18.449219 47 18 47.449219 18 48 C 18 48.550781 18.449219 49 19 49 C 19.550781 49 20 48.550781 20 48 C 20 47.449219 19.550781 47 19 47 Z M 48.914062 47.578125 L 54.480469 49.71875 C 54.472656 49.742188 54.476562 49.753906 54.46875 49.777344 C 54.390625 50.183594 54.203125 50.613281 54.035156 50.785156 C 53.863281 50.957031 53.429688 51.140625 53.019531 51.222656 C 52.613281 51.304688 52.304688 51.304688 52.304688 51.304688 L 51.304688 51.304688 L 51.304688 52.304688 C 51.304688 52.304688 51.304688 52.613281 51.222656 53.019531 C 51.140625 53.429688 50.957031 53.863281 50.785156 54.035156 C 50.613281 54.203125 50.183594 54.390625 49.777344 54.46875 C 49.753906 54.476562 49.738281 54.472656 49.714844 54.480469 L 47.578125 48.914062 Z M 19 51 C 18.449219 51 18 51.449219 18 52 C 18 52.550781 18.449219 53 19 53 C 19.550781 53 20 52.550781 20 52 C 20 51.449219 19.550781 51 19 51 Z M 56.164062 51.085938 L 71.089844 66.015625 L 66.011719 71.09375 L 51.085938 56.167969 C 51.464844 56.015625 51.851562 55.792969 52.199219 55.449219 C 52.839844 54.804688 53.0625 54.023438 53.183594 53.414062 C 53.207031 53.300781 53.191406 53.308594 53.207031 53.207031 C 53.308594 53.191406 53.300781 53.207031 53.414062 53.183594 C 54.023438 53.0625 54.804688 52.839844 55.445312 52.199219 C 55.792969 51.851562 56.011719 51.464844 56.164062 51.085938 Z M 19 55 C 18.449219 55 18 55.449219 18 56 C 18 56.550781 18.449219 57 19 57 C 19.550781 57 20 56.550781 20 56 C 20 55.449219 19.550781 55 19 55 Z M 72.507812 67.429688 L 75.152344 70.070312 L 70.070312 75.152344 L 67.425781 72.507812 Z M 76.5625 71.484375 L 77.105469 72.027344 C 78.308594 73.226562 78.308594 75.148438 77.105469 76.347656 L 76.351562 77.105469 C 75.148438 78.304688 73.226562 78.304688 72.023438 77.105469 L 71.484375 76.5625 Z M 76.5625 71.484375 "/>
</g>
</svg>
