<?xml version="1.0" encoding="UTF-8"?>
<svg xmlns="http://www.w3.org/2000/svg" xmlns:xlink="http://www.w3.org/1999/xlink" width="80pt" height="80pt" viewBox="0 0 80 80" version="1.1">
<g id="surface48977">
<path style=" stroke:none;fill-rule:nonzero;fill:rgb(15.686275%,23.529412%,48.627451%);fill-opacity:1;" d="M 11 13 C 8.792969 13 7 14.792969 7 17 L 7 57.261719 C 7.605469 56.835938 8.277344 56.511719 9 56.296875 L 9 17 C 9 15.898438 9.898438 15 11 15 L 69 15 C 70.101562 15 71 15.898438 71 17 L 71 65 L 17.707031 65 C 17.488281 65.722656 17.164062 66.394531 16.742188 67 L 73 67 L 73 17 C 73 14.792969 71.207031 13 69 13 Z M 71 24 C 71 23.449219 70.550781 23 70 23 C 69.449219 23 69 23.449219 69 24 C 69 24.550781 69.449219 25 70 25 C 70.550781 25 71 24.550781 71 24 Z M 9 24 C 9 24.550781 9.449219 25 10 25 C 10.550781 25 11 24.550781 11 24 C 11 23.449219 10.550781 23 10 23 C 9.449219 23 9 23.449219 9 24 Z M 13 17 C 11.894531 17 11 17.894531 11 19 C 11 20.105469 11.894531 21 13 21 C 14.105469 21 15 20.105469 15 19 C 15 17.894531 14.105469 17 13 17 Z M 19 17 C 17.894531 17 17 17.894531 17 19 C 17 20.105469 17.894531 21 19 21 C 20.105469 21 21 20.105469 21 19 C 21 17.894531 20.105469 17 19 17 Z M 25 17 C 23.894531 17 23 17.894531 23 19 C 23 20.105469 23.894531 21 25 21 C 26.105469 21 27 20.105469 27 19 C 27 17.894531 26.105469 17 25 17 Z M 14 23 C 13.449219 23 13 23.449219 13 24 C 13 24.550781 13.449219 25 14 25 C 14.550781 25 15 24.550781 15 24 C 15 23.449219 14.550781 23 14 23 Z M 18 23 C 17.449219 23 17 23.449219 17 24 C 17 24.550781 17.449219 25 18 25 C 18.550781 25 19 24.550781 19 24 C 19 23.449219 18.550781 23 18 23 Z M 22 23 C 21.449219 23 21 23.449219 21 24 C 21 24.550781 21.449219 25 22 25 C 22.550781 25 23 24.550781 23 24 C 23 23.449219 22.550781 23 22 23 Z M 26 23 C 25.449219 23 25 23.449219 25 24 C 25 24.550781 25.449219 25 26 25 C 26.550781 25 27 24.550781 27 24 C 27 23.449219 26.550781 23 26 23 Z M 30 23 C 29.449219 23 29 23.449219 29 24 C 29 24.550781 29.449219 25 30 25 C 30.550781 25 31 24.550781 31 24 C 31 23.449219 30.550781 23 30 23 Z M 34 23 C 33.449219 23 33 23.449219 33 24 C 33 24.550781 33.449219 25 34 25 C 34.550781 25 35 24.550781 35 24 C 35 23.449219 34.550781 23 34 23 Z M 38 23 C 37.449219 23 37 23.449219 37 24 C 37 24.550781 37.449219 25 38 25 C 38.550781 25 39 24.550781 39 24 C 39 23.449219 38.550781 23 38 23 Z M 42 23 C 41.449219 23 41 23.449219 41 24 C 41 24.550781 41.449219 25 42 25 C 42.550781 25 43 24.550781 43 24 C 43 23.449219 42.550781 23 42 23 Z M 46 23 C 45.449219 23 45 23.449219 45 24 C 45 24.550781 45.449219 25 46 25 C 46.550781 25 47 24.550781 47 24 C 47 23.449219 46.550781 23 46 23 Z M 50 23 C 49.449219 23 49 23.449219 49 24 C 49 24.550781 49.449219 25 50 25 C 50.550781 25 51 24.550781 51 24 C 51 23.449219 50.550781 23 50 23 Z M 54 23 C 53.449219 23 53 23.449219 53 24 C 53 24.550781 53.449219 25 54 25 C 54.550781 25 55 24.550781 55 24 C 55 23.449219 54.550781 23 54 23 Z M 58 23 C 57.449219 23 57 23.449219 57 24 C 57 24.550781 57.449219 25 58 25 C 58.550781 25 59 24.550781 59 24 C 59 23.449219 58.550781 23 58 23 Z M 62 23 C 61.449219 23 61 23.449219 61 24 C 61 24.550781 61.449219 25 62 25 C 62.550781 25 63 24.550781 63 24 C 63 23.449219 62.550781 23 62 23 Z M 66 23 C 65.449219 23 65 23.449219 65 24 C 65 24.550781 65.449219 25 66 25 C 66.550781 25 67 24.550781 67 24 C 67 23.449219 66.550781 23 66 23 Z M 59 31 C 56.800781 31 55 32.800781 55 35 C 55 35.738281 55.214844 36.421875 55.566406 37.015625 L 42.015625 50.566406 C 41.421875 50.214844 40.738281 50 40 50 C 39.261719 50 38.578125 50.214844 37.984375 50.566406 L 33.433594 46.015625 C 33.785156 45.421875 34 44.738281 34 44 C 34 41.800781 32.199219 40 30 40 C 27.800781 40 26 41.800781 26 44 C 26 44.738281 26.214844 45.421875 26.566406 46.015625 L 13.015625 59.566406 C 12.421875 59.214844 11.738281 59 11 59 C 8.800781 59 7 60.800781 7 63 C 7 65.199219 8.800781 67 11 67 C 13.199219 67 15 65.199219 15 63 C 15 62.261719 14.785156 61.578125 14.433594 60.984375 L 27.984375 47.433594 C 28.578125 47.785156 29.261719 48 30 48 C 30.738281 48 31.421875 47.785156 32.015625 47.433594 L 36.566406 51.984375 C 36.214844 52.578125 36 53.261719 36 54 C 36 56.199219 37.800781 58 40 58 C 42.199219 58 44 56.199219 44 54 C 44 53.261719 43.785156 52.578125 43.433594 51.984375 L 56.984375 38.433594 C 57.578125 38.785156 58.261719 39 59 39 C 61.199219 39 63 37.199219 63 35 C 63 32.800781 61.199219 31 59 31 Z M 59 33 C 60.117188 33 61 33.882812 61 35 C 61 36.117188 60.117188 37 59 37 C 57.882812 37 57 36.117188 57 35 C 57 33.882812 57.882812 33 59 33 Z M 30 42 C 31.117188 42 32 42.882812 32 44 C 32 45.117188 31.117188 46 30 46 C 28.882812 46 28 45.117188 28 44 C 28 42.882812 28.882812 42 30 42 Z M 40 52 C 41.117188 52 42 52.882812 42 54 C 42 55.117188 41.117188 56 40 56 C 38.882812 56 38 55.117188 38 54 C 38 52.882812 38.882812 52 40 52 Z M 11 61 C 12.117188 61 13 61.882812 13 63 C 13 64.117188 12.117188 65 11 65 C 9.882812 65 9 64.117188 9 63 C 9 61.882812 9.882812 61 11 61 Z M 11 61 "/>
</g>
</svg>
