
<svg width="20" height="20" viewBox="0 0 20 20" fill="none" xmlns="http://www.w3.org/2000/svg">
<path d="M14.5862 0H5.41381C2.42858 0 0 2.42858 0 5.41381V14.5863C0 17.5714 2.42858 20 5.41381 20H14.5863C17.5714 20 20 17.5714 20 14.5863V5.41381C20 2.42858 17.5714 0 14.5862 0V0ZM18.8275 14.5863C18.8275 16.9249 16.9249 18.8275 14.5862 18.8275H5.41381C3.0751 18.8275 1.17248 16.9249 1.17248 14.5863V5.41381C1.17248 3.0751 3.0751 1.17248 5.41381 1.17248H14.5863C16.9249 1.17248 18.8275 3.0751 18.8275 5.41381V14.5863Z" fill="white"/>
<path d="M9.99996 4.53143C6.98452 4.53143 4.53137 6.98458 4.53137 10C4.53137 13.0155 6.98452 15.4686 9.99996 15.4686C13.0154 15.4686 15.4685 13.0155 15.4685 10C15.4685 6.98458 13.0154 4.53143 9.99996 4.53143ZM9.99996 14.2961C7.63119 14.2961 5.70386 12.3689 5.70386 10C5.70386 7.63125 7.63119 5.70392 9.99996 5.70392C12.3689 5.70392 14.2961 7.63125 14.2961 10C14.2961 12.3689 12.3689 14.2961 9.99996 14.2961Z" fill="white"/>
<path d="M15.5993 2.58929C14.7082 2.58929 13.9834 3.31424 13.9834 4.2052C13.9834 5.09631 14.7082 5.82125 15.5993 5.82125C16.4904 5.82125 17.2154 5.09631 17.2154 4.2052C17.2154 3.31409 16.4904 2.58929 15.5993 2.58929ZM15.5993 4.64862C15.3549 4.64862 15.1559 4.44964 15.1559 4.2052C15.1559 3.9606 15.3549 3.76178 15.5993 3.76178C15.8439 3.76178 16.0429 3.9606 16.0429 4.2052C16.0429 4.44964 15.8439 4.64862 15.5993 4.64862Z" fill="white"/>
</svg>
