<?xml version="1.0" encoding="UTF-8"?>
<svg xmlns="http://www.w3.org/2000/svg" xmlns:xlink="http://www.w3.org/1999/xlink" width="100pt" height="100pt" viewBox="0 0 100 100" version="1.1">
<g id="surface3813330">
<path style=" stroke:none;fill-rule:nonzero;fill:rgb(15.686275%,23.529412%,48.627451%);fill-opacity:1;" d="M 31 17.988281 C 23.820312 17.988281 18 23.808594 18 30.988281 L 18 69.988281 C 18 77.167969 23.820312 82.988281 31 82.988281 L 70 82.988281 C 77.179688 82.988281 83 77.167969 83 69.988281 L 83 30.988281 C 83 23.808594 77.179688 17.988281 70 17.988281 Z M 31 19.988281 L 70 19.988281 C 76.074219 19.988281 81 24.914062 81 30.988281 L 81 34 L 20 34 L 20 30.988281 C 20 24.914062 24.925781 19.988281 31 19.988281 Z M 20 35 L 81 35 L 81 50 L 38.5 50 C 38.320312 49.996094 38.152344 50.09375 38.0625 50.246094 C 37.96875 50.402344 37.96875 50.597656 38.0625 50.753906 C 38.152344 50.90625 38.320312 51.003906 38.5 51 L 81 51 L 81 66 L 73.5 66 C 73.320312 65.996094 73.152344 66.09375 73.0625 66.246094 C 72.96875 66.402344 72.96875 66.597656 73.0625 66.753906 C 73.152344 66.90625 73.320312 67.003906 73.5 67 L 81 67 L 81 69.988281 C 81 76.0625 76.074219 80.988281 70 80.988281 L 31 80.988281 C 24.925781 80.988281 20 76.0625 20 69.988281 L 20 67 L 57.5 67 C 57.679688 67.003906 57.847656 66.90625 57.9375 66.753906 C 58.03125 66.597656 58.03125 66.402344 57.9375 66.246094 C 57.847656 66.09375 57.679688 65.996094 57.5 66 L 20 66 L 20 51 L 28.5 51 C 28.679688 51.003906 28.847656 50.90625 28.9375 50.753906 C 29.03125 50.597656 29.03125 50.402344 28.9375 50.246094 C 28.847656 50.09375 28.679688 49.996094 28.5 50 L 20 50 Z M 22.5 37 C 22.320312 36.996094 22.152344 37.09375 22.0625 37.246094 C 21.96875 37.402344 21.96875 37.597656 22.0625 37.753906 C 22.152344 37.90625 22.320312 38.003906 22.5 38 L 23.5 38 C 23.679688 38.003906 23.847656 37.90625 23.9375 37.753906 C 24.03125 37.597656 24.03125 37.402344 23.9375 37.246094 C 23.847656 37.09375 23.679688 36.996094 23.5 37 Z M 27.5 37 C 27.320312 36.996094 27.152344 37.09375 27.0625 37.246094 C 26.96875 37.402344 26.96875 37.597656 27.0625 37.753906 C 27.152344 37.90625 27.320312 38.003906 27.5 38 L 28.5 38 C 28.679688 38.003906 28.847656 37.90625 28.9375 37.753906 C 29.03125 37.597656 29.03125 37.402344 28.9375 37.246094 C 28.847656 37.09375 28.679688 36.996094 28.5 37 Z M 32.5 37 C 32.320312 36.996094 32.152344 37.09375 32.0625 37.246094 C 31.96875 37.402344 31.96875 37.597656 32.0625 37.753906 C 32.152344 37.90625 32.320312 38.003906 32.5 38 L 33.5 38 C 33.679688 38.003906 33.847656 37.90625 33.9375 37.753906 C 34.03125 37.597656 34.03125 37.402344 33.9375 37.246094 C 33.847656 37.09375 33.679688 36.996094 33.5 37 Z M 37.5 37 C 37.320312 36.996094 37.152344 37.09375 37.0625 37.246094 C 36.96875 37.402344 36.96875 37.597656 37.0625 37.753906 C 37.152344 37.90625 37.320312 38.003906 37.5 38 L 38.5 38 C 38.679688 38.003906 38.847656 37.90625 38.9375 37.753906 C 39.03125 37.597656 39.03125 37.402344 38.9375 37.246094 C 38.847656 37.09375 38.679688 36.996094 38.5 37 Z M 42.5 37 C 42.320312 36.996094 42.152344 37.09375 42.0625 37.246094 C 41.96875 37.402344 41.96875 37.597656 42.0625 37.753906 C 42.152344 37.90625 42.320312 38.003906 42.5 38 L 43.5 38 C 43.679688 38.003906 43.847656 37.90625 43.9375 37.753906 C 44.03125 37.597656 44.03125 37.402344 43.9375 37.246094 C 43.847656 37.09375 43.679688 36.996094 43.5 37 Z M 47.5 37 C 47.320312 36.996094 47.152344 37.09375 47.0625 37.246094 C 46.96875 37.402344 46.96875 37.597656 47.0625 37.753906 C 47.152344 37.90625 47.320312 38.003906 47.5 38 L 48.5 38 C 48.679688 38.003906 48.847656 37.90625 48.9375 37.753906 C 49.03125 37.597656 49.03125 37.402344 48.9375 37.246094 C 48.847656 37.09375 48.679688 36.996094 48.5 37 Z M 52.5 37 C 52.320312 36.996094 52.152344 37.09375 52.0625 37.246094 C 51.96875 37.402344 51.96875 37.597656 52.0625 37.753906 C 52.152344 37.90625 52.320312 38.003906 52.5 38 L 53.5 38 C 53.679688 38.003906 53.847656 37.90625 53.9375 37.753906 C 54.03125 37.597656 54.03125 37.402344 53.9375 37.246094 C 53.847656 37.09375 53.679688 36.996094 53.5 37 Z M 57.5 37 C 57.320312 36.996094 57.152344 37.09375 57.0625 37.246094 C 56.96875 37.402344 56.96875 37.597656 57.0625 37.753906 C 57.152344 37.90625 57.320312 38.003906 57.5 38 L 58.5 38 C 58.679688 38.003906 58.847656 37.90625 58.9375 37.753906 C 59.03125 37.597656 59.03125 37.402344 58.9375 37.246094 C 58.847656 37.09375 58.679688 36.996094 58.5 37 Z M 62.5 37 C 62.320312 36.996094 62.152344 37.09375 62.0625 37.246094 C 61.96875 37.402344 61.96875 37.597656 62.0625 37.753906 C 62.152344 37.90625 62.320312 38.003906 62.5 38 L 63.5 38 C 63.679688 38.003906 63.847656 37.90625 63.9375 37.753906 C 64.03125 37.597656 64.03125 37.402344 63.9375 37.246094 C 63.847656 37.09375 63.679688 36.996094 63.5 37 Z M 67.5 37 C 67.320312 36.996094 67.152344 37.09375 67.0625 37.246094 C 66.96875 37.402344 66.96875 37.597656 67.0625 37.753906 C 67.152344 37.90625 67.320312 38.003906 67.5 38 L 68.5 38 C 68.679688 38.003906 68.847656 37.90625 68.9375 37.753906 C 69.03125 37.597656 69.03125 37.402344 68.9375 37.246094 C 68.847656 37.09375 68.679688 36.996094 68.5 37 Z M 72.5 37 C 72.320312 36.996094 72.152344 37.09375 72.0625 37.246094 C 71.96875 37.402344 71.96875 37.597656 72.0625 37.753906 C 72.152344 37.90625 72.320312 38.003906 72.5 38 L 73.5 38 C 73.679688 38.003906 73.847656 37.90625 73.9375 37.753906 C 74.03125 37.597656 74.03125 37.402344 73.9375 37.246094 C 73.847656 37.09375 73.679688 36.996094 73.5 37 Z M 77.5 37 C 77.320312 36.996094 77.152344 37.09375 77.0625 37.246094 C 76.96875 37.402344 76.96875 37.597656 77.0625 37.753906 C 77.152344 37.90625 77.320312 38.003906 77.5 38 L 78.5 38 C 78.679688 38.003906 78.847656 37.90625 78.9375 37.753906 C 79.03125 37.597656 79.03125 37.402344 78.9375 37.246094 C 78.847656 37.09375 78.679688 36.996094 78.5 37 Z M 31.484375 50 C 31.300781 49.996094 31.132812 50.09375 31.042969 50.246094 C 30.953125 50.402344 30.953125 50.597656 31.042969 50.753906 C 31.132812 50.90625 31.300781 51.003906 31.484375 51 L 34.5 51 C 34.679688 51.003906 34.847656 50.90625 34.9375 50.753906 C 35.03125 50.597656 35.03125 50.402344 34.9375 50.246094 C 34.847656 50.09375 34.679688 49.996094 34.5 50 Z M 61.5 66 C 61.320312 65.996094 61.152344 66.09375 61.0625 66.246094 C 60.96875 66.402344 60.96875 66.597656 61.0625 66.753906 C 61.152344 66.90625 61.320312 67.003906 61.5 67 L 64.5 67 C 64.679688 67.003906 64.847656 66.90625 64.9375 66.753906 C 65.03125 66.597656 65.03125 66.402344 64.9375 66.246094 C 64.847656 66.09375 64.679688 65.996094 64.5 66 Z M 67.5 66 C 67.320312 65.996094 67.152344 66.09375 67.0625 66.246094 C 66.96875 66.402344 66.96875 66.597656 67.0625 66.753906 C 67.152344 66.90625 67.320312 67.003906 67.5 67 L 69.5 67 C 69.679688 67.003906 69.847656 66.90625 69.9375 66.753906 C 70.03125 66.597656 70.03125 66.402344 69.9375 66.246094 C 69.847656 66.09375 69.679688 65.996094 69.5 66 Z M 67.5 66 "/>
</g>
</svg>
