<svg width="40" height="40" viewBox="0 0 40 40" fill="none" xmlns="http://www.w3.org/2000/svg">
<path d="M20 40C31.0457 40 40 31.0457 40 20C40 8.9543 31.0457 0 20 0C8.9543 0 0 8.9543 0 20C0 31.0457 8.9543 40 20 40Z" fill="#152148"/>
<path d="M15.864 23.256H17.376C17.376 23.688 17.442 24.066 17.574 24.39C17.706 24.714 17.892 24.984 18.132 25.2C18.372 25.416 18.654 25.578 18.978 25.686C19.302 25.794 19.656 25.848 20.04 25.848C20.424 25.848 20.778 25.8 21.102 25.704C21.438 25.596 21.72 25.446 21.948 25.254C22.188 25.05 22.374 24.81 22.506 24.534C22.638 24.246 22.704 23.922 22.704 23.562C22.704 23.214 22.632 22.902 22.488 22.626C22.356 22.338 22.164 22.098 21.912 21.906C21.672 21.702 21.39 21.546 21.066 21.438C20.742 21.33 20.4 21.276 20.04 21.276H19.104V19.908H20.04C20.34 19.908 20.628 19.86 20.904 19.764C21.18 19.656 21.42 19.506 21.624 19.314C21.828 19.122 21.984 18.894 22.092 18.63C22.212 18.366 22.272 18.078 22.272 17.766C22.272 17.454 22.212 17.172 22.092 16.92C21.984 16.668 21.828 16.458 21.624 16.29C21.42 16.122 21.18 15.996 20.904 15.912C20.64 15.816 20.352 15.768 20.04 15.768C19.728 15.768 19.434 15.816 19.158 15.912C18.894 15.996 18.66 16.134 18.456 16.326C18.252 16.506 18.09 16.74 17.97 17.028C17.862 17.304 17.808 17.628 17.808 18H16.368C16.368 17.46 16.452 16.968 16.62 16.524C16.8 16.08 17.052 15.702 17.376 15.39C17.7 15.066 18.09 14.82 18.546 14.652C19.002 14.484 19.5 14.4 20.04 14.4C20.592 14.4 21.102 14.484 21.57 14.652C22.038 14.808 22.434 15.036 22.758 15.336C23.094 15.636 23.346 15.996 23.514 16.416C23.694 16.824 23.784 17.268 23.784 17.748C23.784 18.036 23.736 18.33 23.64 18.63C23.544 18.918 23.412 19.194 23.244 19.458C23.076 19.71 22.878 19.932 22.65 20.124C22.434 20.304 22.212 20.436 21.984 20.52V20.592C22.308 20.676 22.608 20.814 22.884 21.006C23.172 21.198 23.418 21.432 23.622 21.708C23.838 21.984 24 22.29 24.108 22.626C24.228 22.962 24.288 23.316 24.288 23.688C24.288 24.228 24.18 24.72 23.964 25.164C23.748 25.596 23.442 25.968 23.046 26.28C22.662 26.58 22.212 26.814 21.696 26.982C21.18 27.138 20.628 27.216 20.04 27.216C19.404 27.216 18.828 27.138 18.312 26.982C17.808 26.814 17.37 26.568 16.998 26.244C16.638 25.908 16.356 25.494 16.152 25.002C15.96 24.498 15.864 23.916 15.864 23.256Z" fill="white"/>
</svg>
