<?xml version="1.0" encoding="UTF-8"?>
<svg xmlns="http://www.w3.org/2000/svg" xmlns:xlink="http://www.w3.org/1999/xlink" width="64pt" height="64pt" viewBox="0 0 64 64" version="1.1">
<g id="surface3812731">
<path style=" stroke:none;fill-rule:nonzero;fill:rgb(15.686275%,23.529412%,48.627451%);fill-opacity:1;" d="M 31 0 C 18.652344 0 8.550781 9.78125 8.023438 22 L 7 22 C 4.242188 22 2 24.242188 2 27 L 2 41 C 2 43.757812 4.242188 46 7 46 L 10.183594 46 C 10.597656 47.160156 11.699219 48 13 48 C 14.652344 48 16 46.652344 16 45 L 16 23 C 16 21.347656 14.652344 20 13 20 C 11.699219 20 10.597656 20.839844 10.183594 22 L 10.050781 22 C 10.265625 17.515625 11.875 13.402344 14.476562 10.082031 L 19.003906 14.527344 C 19.785156 15.292969 20.800781 15.683594 21.8125 15.683594 C 22.703125 15.683594 23.59375 15.382812 24.328125 14.773438 C 26.472656 12.984375 29.199219 12 32 12 C 34.789062 12 37.507812 12.980469 39.652344 14.757812 C 41.222656 16.058594 43.511719 15.945312 44.980469 14.496094 L 49.488281 10.039062 C 52.109375 13.367188 53.734375 17.496094 53.949219 22 L 53.8125 22 C 53.402344 20.835938 52.300781 20 51 20 C 49.34375 20 48 21.34375 48 23 L 48 45 C 48 46.652344 49.34375 48 51 48 C 52.300781 48 53.402344 47.160156 53.8125 46 L 55 46 L 55 48 C 55 52.960938 50.964844 57 46 57 L 39.859375 57 C 39.410156 55.277344 37.859375 54 36 54 L 34 54 C 31.792969 54 30 55.792969 30 58 C 30 60.203125 31.792969 62 34 62 L 36 62 C 37.859375 62 39.410156 60.71875 39.859375 59 L 46 59 C 52.066406 59 57 54.0625 57 48 L 57 46 C 59.757812 46 62 43.753906 62 41 L 62 27 C 62 24.242188 59.757812 22 57 22 L 55.972656 22 C 55.449219 9.78125 45.347656 0 33 0 Z M 31 2 L 33 2 C 38.96875 2 44.351562 4.515625 48.175781 8.523438 L 43.574219 13.074219 C 42.839844 13.800781 41.703125 13.855469 40.925781 13.21875 C 38.425781 11.144531 35.257812 10 32 10 C 28.734375 10 25.554688 11.148438 23.046875 13.234375 C 22.277344 13.875 21.140625 13.820312 20.40625 13.097656 L 15.785156 8.566406 C 19.613281 4.53125 25.011719 2 31 2 Z M 32 4 C 31.445312 4 31 4.445312 31 5 L 31 7 C 31 7.554688 31.445312 8 32 8 C 32.554688 8 33 7.554688 33 7 L 33 5 C 33 4.445312 32.554688 4 32 4 Z M 37.425781 4.742188 C 37.042969 4.792969 36.707031 5.070312 36.597656 5.472656 L 36.078125 7.40625 C 35.9375 7.9375 36.253906 8.488281 36.785156 8.632812 C 36.875 8.652344 36.960938 8.664062 37.046875 8.664062 C 37.488281 8.664062 37.894531 8.371094 38.015625 7.921875 L 38.53125 5.992188 C 38.675781 5.457031 38.355469 4.910156 37.824219 4.765625 C 37.691406 4.730469 37.554688 4.722656 37.425781 4.742188 Z M 26.574219 4.742188 C 26.445312 4.722656 26.308594 4.730469 26.175781 4.765625 C 25.644531 4.910156 25.324219 5.457031 25.46875 5.992188 L 25.984375 7.921875 C 26.105469 8.371094 26.507812 8.664062 26.953125 8.664062 C 27.039062 8.664062 27.125 8.652344 27.214844 8.632812 C 27.746094 8.488281 28.0625 7.941406 27.921875 7.40625 L 27.402344 5.476562 C 27.292969 5.074219 26.957031 4.796875 26.574219 4.742188 Z M 21.125 6.886719 C 20.996094 6.902344 20.867188 6.945312 20.75 7.015625 C 20.269531 7.292969 20.109375 7.902344 20.386719 8.382812 L 21.386719 10.109375 C 21.570312 10.433594 21.90625 10.609375 22.25 10.609375 C 22.421875 10.609375 22.59375 10.570312 22.75 10.480469 C 23.230469 10.203125 23.390625 9.589844 23.113281 9.109375 L 22.113281 7.382812 C 21.910156 7.023438 21.511719 6.839844 21.125 6.886719 Z M 42.875 6.890625 C 42.484375 6.839844 42.089844 7.023438 41.886719 7.382812 L 40.886719 9.113281 C 40.609375 9.589844 40.769531 10.203125 41.25 10.480469 C 41.40625 10.570312 41.578125 10.613281 41.75 10.613281 C 42.09375 10.613281 42.429688 10.433594 42.613281 10.113281 L 43.613281 8.382812 C 43.890625 7.902344 43.726562 7.292969 43.25 7.015625 C 43.128906 6.945312 43.003906 6.90625 42.875 6.890625 Z M 13 22 C 13.550781 22 14 22.449219 14 23 L 14 45 C 14 45.550781 13.550781 46 13 46 C 12.449219 46 12 45.550781 12 45 L 12 23 C 12 22.449219 12.449219 22 13 22 Z M 51 22 C 51.550781 22 52 22.449219 52 23 L 52 45 C 52 45.550781 51.550781 46 51 46 C 50.449219 46 50 45.550781 50 45 L 50 23 C 50 22.449219 50.449219 22 51 22 Z M 7 24 L 10 24 L 10 44 L 7 44 C 5.347656 44 4 42.652344 4 41 L 4 27 C 4 25.347656 5.347656 24 7 24 Z M 54 24 L 57 24 C 58.652344 24 60 25.347656 60 27 L 60 41 C 60 42.652344 58.652344 44 57 44 L 54 44 Z M 34 56 L 36 56 C 37.101562 56 38 56.898438 38 58 C 38 59.101562 37.101562 60 36 60 L 34 60 C 32.898438 60 32 59.101562 32 58 C 32 56.898438 32.898438 56 34 56 Z M 34 56 "/>
</g>
</svg>
