<?xml version="1.0" encoding="UTF-8"?>
<svg xmlns="http://www.w3.org/2000/svg" xmlns:xlink="http://www.w3.org/1999/xlink" width="80pt" height="80pt" viewBox="0 0 80 80" version="1.1">
<g id="surface44668">
<path style=" stroke:none;fill-rule:nonzero;fill:rgb(15.686275%,23.529412%,48.627451%);fill-opacity:1;" d="M 10 13 C 7.25 13 5 15.25 5 18 L 5 50 C 5 52.75 7.25 55 10 55 L 15 55 L 15 62 C 15 64.75 17.25 67 20 67 L 70 67 C 72.75 67 75 64.75 75 62 L 75 32 C 75 29.25 72.75 27 70 27 L 67 27 L 67 18 C 67 15.25 64.75 13 62 13 Z M 10 15 L 62 15 C 63.667969 15 65 16.332031 65 18 L 65 21 L 7 21 L 7 18 C 7 16.332031 8.332031 15 10 15 Z M 7 25 L 65 25 L 65 50 C 65 51.667969 63.667969 53 62 53 L 10 53 C 8.332031 53 7 51.667969 7 50 Z M 67 29 L 70 29 C 71.667969 29 73 30.332031 73 32 L 73 35 L 67 35 Z M 11 32 C 10.449219 32 10 32.449219 10 33 C 10 33.550781 10.449219 34 11 34 C 11.550781 34 12 33.550781 12 33 C 12 32.449219 11.550781 32 11 32 Z M 15 32 C 14.449219 32 14 32.449219 14 33 C 14 33.550781 14.449219 34 15 34 C 15.550781 34 16 33.550781 16 33 C 16 32.449219 15.550781 32 15 32 Z M 19 32 C 18.449219 32 18 32.449219 18 33 C 18 33.550781 18.449219 34 19 34 C 19.550781 34 20 33.550781 20 33 C 20 32.449219 19.550781 32 19 32 Z M 23 32 C 22.449219 32 22 32.449219 22 33 C 22 33.550781 22.449219 34 23 34 C 23.550781 34 24 33.550781 24 33 C 24 32.449219 23.550781 32 23 32 Z M 27 32 C 26.449219 32 26 32.449219 26 33 C 26 33.550781 26.449219 34 27 34 C 27.550781 34 28 33.550781 28 33 C 28 32.449219 27.550781 32 27 32 Z M 31 32 C 30.449219 32 30 32.449219 30 33 C 30 33.550781 30.449219 34 31 34 C 31.550781 34 32 33.550781 32 33 C 32 32.449219 31.550781 32 31 32 Z M 35 32 C 34.449219 32 34 32.449219 34 33 C 34 33.550781 34.449219 34 35 34 C 35.550781 34 36 33.550781 36 33 C 36 32.449219 35.550781 32 35 32 Z M 67 39 L 73 39 L 73 62 C 73 63.667969 71.667969 65 70 65 L 20 65 C 18.332031 65 17 63.667969 17 62 L 17 55 L 62 55 C 64.75 55 67 52.75 67 50 Z M 11 48 C 10.449219 48 10 48.449219 10 49 C 10 49.550781 10.449219 50 11 50 C 11.550781 50 12 49.550781 12 49 C 12 48.449219 11.550781 48 11 48 Z M 15 48 C 14.449219 48 14 48.449219 14 49 C 14 49.550781 14.449219 50 15 50 C 15.550781 50 16 49.550781 16 49 C 16 48.449219 15.550781 48 15 48 Z M 19 48 C 18.449219 48 18 48.449219 18 49 C 18 49.550781 18.449219 50 19 50 C 19.550781 50 20 49.550781 20 49 C 20 48.449219 19.550781 48 19 48 Z M 23 48 C 22.449219 48 22 48.449219 22 49 C 22 49.550781 22.449219 50 23 50 C 23.550781 50 24 49.550781 24 49 C 24 48.449219 23.550781 48 23 48 Z M 27 48 C 26.449219 48 26 48.449219 26 49 C 26 49.550781 26.449219 50 27 50 C 27.550781 50 28 49.550781 28 49 C 28 48.449219 27.550781 48 27 48 Z M 31 48 C 30.449219 48 30 48.449219 30 49 C 30 49.550781 30.449219 50 31 50 C 31.550781 50 32 49.550781 32 49 C 32 48.449219 31.550781 48 31 48 Z M 35 48 C 34.449219 48 34 48.449219 34 49 C 34 49.550781 34.449219 50 35 50 C 35.550781 50 36 49.550781 36 49 C 36 48.449219 35.550781 48 35 48 Z M 39 48 C 38.449219 48 38 48.449219 38 49 C 38 49.550781 38.449219 50 39 50 C 39.550781 50 40 49.550781 40 49 C 40 48.449219 39.550781 48 39 48 Z M 43 48 C 42.449219 48 42 48.449219 42 49 C 42 49.550781 42.449219 50 43 50 C 43.550781 50 44 49.550781 44 49 C 44 48.449219 43.550781 48 43 48 Z M 47 48 C 46.449219 48 46 48.449219 46 49 C 46 49.550781 46.449219 50 47 50 C 47.550781 50 48 49.550781 48 49 C 48 48.449219 47.550781 48 47 48 Z M 51 48 C 50.449219 48 50 48.449219 50 49 C 50 49.550781 50.449219 50 51 50 C 51.550781 50 52 49.550781 52 49 C 52 48.449219 51.550781 48 51 48 Z M 55 48 C 54.449219 48 54 48.449219 54 49 C 54 49.550781 54.449219 50 55 50 C 55.550781 50 56 49.550781 56 49 C 56 48.449219 55.550781 48 55 48 Z M 59 48 C 58.449219 48 58 48.449219 58 49 C 58 49.550781 58.449219 50 59 50 C 59.550781 50 60 49.550781 60 49 C 60 48.449219 59.550781 48 59 48 Z M 21 60 C 20.449219 60 20 60.449219 20 61 C 20 61.550781 20.449219 62 21 62 C 21.550781 62 22 61.550781 22 61 C 22 60.449219 21.550781 60 21 60 Z M 25 60 C 24.449219 60 24 60.449219 24 61 C 24 61.550781 24.449219 62 25 62 C 25.550781 62 26 61.550781 26 61 C 26 60.449219 25.550781 60 25 60 Z M 29 60 C 28.449219 60 28 60.449219 28 61 C 28 61.550781 28.449219 62 29 62 C 29.550781 62 30 61.550781 30 61 C 30 60.449219 29.550781 60 29 60 Z M 33 60 C 32.449219 60 32 60.449219 32 61 C 32 61.550781 32.449219 62 33 62 C 33.550781 62 34 61.550781 34 61 C 34 60.449219 33.550781 60 33 60 Z M 37 60 C 36.449219 60 36 60.449219 36 61 C 36 61.550781 36.449219 62 37 62 C 37.550781 62 38 61.550781 38 61 C 38 60.449219 37.550781 60 37 60 Z M 41 60 C 40.449219 60 40 60.449219 40 61 C 40 61.550781 40.449219 62 41 62 C 41.550781 62 42 61.550781 42 61 C 42 60.449219 41.550781 60 41 60 Z M 45 60 C 44.449219 60 44 60.449219 44 61 C 44 61.550781 44.449219 62 45 62 C 45.550781 62 46 61.550781 46 61 C 46 60.449219 45.550781 60 45 60 Z M 49 60 C 48.449219 60 48 60.449219 48 61 C 48 61.550781 48.449219 62 49 62 C 49.550781 62 50 61.550781 50 61 C 50 60.449219 49.550781 60 49 60 Z M 53 60 C 52.449219 60 52 60.449219 52 61 C 52 61.550781 52.449219 62 53 62 C 53.550781 62 54 61.550781 54 61 C 54 60.449219 53.550781 60 53 60 Z M 57 60 C 56.449219 60 56 60.449219 56 61 C 56 61.550781 56.449219 62 57 62 C 57.550781 62 58 61.550781 58 61 C 58 60.449219 57.550781 60 57 60 Z M 61 60 C 60.449219 60 60 60.449219 60 61 C 60 61.550781 60.449219 62 61 62 C 61.550781 62 62 61.550781 62 61 C 62 60.449219 61.550781 60 61 60 Z M 65 60 C 64.449219 60 64 60.449219 64 61 C 64 61.550781 64.449219 62 65 62 C 65.550781 62 66 61.550781 66 61 C 66 60.449219 65.550781 60 65 60 Z M 69 60 C 68.449219 60 68 60.449219 68 61 C 68 61.550781 68.449219 62 69 62 C 69.550781 62 70 61.550781 70 61 C 70 60.449219 69.550781 60 69 60 Z M 69 60 "/>
</g>
</svg>
