<?xml version="1.0" encoding="UTF-8"?>
<svg xmlns="http://www.w3.org/2000/svg" xmlns:xlink="http://www.w3.org/1999/xlink" width="100pt" height="100pt" viewBox="0 0 100 100" version="1.1">
<g id="surface32125">
<path style=" stroke:none;fill-rule:nonzero;fill:rgb(15.686275%,23.529412%,48.627451%);fill-opacity:1;" d="M 26.492188 15.992188 C 26.359375 15.996094 26.234375 16.050781 26.140625 16.144531 C 26.046875 16.238281 25.996094 16.367188 26 16.5 L 26 17.5 C 25.996094 17.679688 26.09375 17.847656 26.246094 17.9375 C 26.402344 18.03125 26.597656 18.03125 26.753906 17.9375 C 26.90625 17.847656 27.003906 17.679688 27 17.5 L 27 16.5 C 27.003906 16.363281 26.949219 16.234375 26.855469 16.136719 C 26.757812 16.042969 26.628906 15.988281 26.492188 15.992188 Z M 49.492188 15.992188 C 49.359375 15.996094 49.234375 16.050781 49.140625 16.144531 C 49.046875 16.238281 48.996094 16.367188 49 16.5 L 49 17.5 C 48.996094 17.679688 49.09375 17.847656 49.246094 17.9375 C 49.402344 18.03125 49.597656 18.03125 49.753906 17.9375 C 49.90625 17.847656 50.003906 17.679688 50 17.5 L 50 16.5 C 50.003906 16.363281 49.949219 16.234375 49.855469 16.136719 C 49.757812 16.042969 49.628906 15.988281 49.492188 15.992188 Z M 72.492188 15.992188 C 72.359375 15.996094 72.234375 16.050781 72.140625 16.144531 C 72.046875 16.238281 71.996094 16.367188 72 16.5 L 72 17.5 C 71.996094 17.679688 72.09375 17.847656 72.246094 17.9375 C 72.402344 18.03125 72.597656 18.03125 72.753906 17.9375 C 72.90625 17.847656 73.003906 17.679688 73 17.5 L 73 16.5 C 73.003906 16.363281 72.949219 16.234375 72.855469 16.136719 C 72.757812 16.042969 72.628906 15.988281 72.492188 15.992188 Z M 26.492188 19.992188 C 26.359375 19.996094 26.234375 20.050781 26.140625 20.144531 C 26.046875 20.238281 25.996094 20.367188 26 20.5 L 26 21.5 C 25.996094 21.679688 26.09375 21.847656 26.246094 21.9375 C 26.402344 22.03125 26.597656 22.03125 26.753906 21.9375 C 26.90625 21.847656 27.003906 21.679688 27 21.5 L 27 20.5 C 27.003906 20.363281 26.949219 20.234375 26.855469 20.136719 C 26.757812 20.042969 26.628906 19.988281 26.492188 19.992188 Z M 49.492188 19.992188 C 49.359375 19.996094 49.234375 20.050781 49.140625 20.144531 C 49.046875 20.238281 48.996094 20.367188 49 20.5 L 49 21.5 C 48.996094 21.679688 49.09375 21.847656 49.246094 21.9375 C 49.402344 22.03125 49.597656 22.03125 49.753906 21.9375 C 49.90625 21.847656 50.003906 21.679688 50 21.5 L 50 20.5 C 50.003906 20.363281 49.949219 20.234375 49.855469 20.136719 C 49.757812 20.042969 49.628906 19.988281 49.492188 19.992188 Z M 72.492188 19.992188 C 72.359375 19.996094 72.234375 20.050781 72.140625 20.144531 C 72.046875 20.238281 71.996094 20.367188 72 20.5 L 72 21.5 C 71.996094 21.679688 72.09375 21.847656 72.246094 21.9375 C 72.402344 22.03125 72.597656 22.03125 72.753906 21.9375 C 72.90625 21.847656 73.003906 21.679688 73 21.5 L 73 20.5 C 73.003906 20.363281 72.949219 20.234375 72.855469 20.136719 C 72.757812 20.042969 72.628906 19.988281 72.492188 19.992188 Z M 84.980469 19.992188 C 84.789062 20 84.601562 20.058594 84.445312 20.167969 L 76.945312 25.167969 C 76.761719 25.292969 76.621094 25.472656 76.550781 25.683594 L 72.988281 36.378906 C 72.933594 36.148438 72.726562 35.988281 72.492188 35.992188 C 72.359375 35.996094 72.234375 36.050781 72.140625 36.144531 C 72.046875 36.238281 71.996094 36.367188 72 36.5 L 72 37.5 C 71.996094 37.757812 72.1875 37.976562 72.445312 38.003906 L 72.105469 39.027344 L 66.253906 32.339844 C 66.058594 32.121094 65.78125 31.996094 65.492188 32 C 65.199219 32.003906 64.925781 32.132812 64.738281 32.351562 L 59.800781 38.1875 L 55.039062 35.15625 C 54.804688 35.007812 54.519531 34.960938 54.253906 35.03125 C 53.988281 35.097656 53.757812 35.273438 53.625 35.511719 L 49.171875 43.523438 L 37.089844 34.691406 C 36.644531 34.371094 36.023438 34.464844 35.699219 34.902344 L 26.441406 47.402344 L 20.757812 40.84375 C 20.410156 40.445312 19.8125 40.382812 19.390625 40.707031 L 12.890625 45.707031 C 12.605469 45.921875 12.457031 46.277344 12.503906 46.632812 C 12.546875 46.988281 12.78125 47.292969 13.113281 47.429688 C 13.445312 47.566406 13.828125 47.515625 14.109375 47.292969 L 19.863281 42.867188 L 25.746094 49.652344 C 25.90625 49.839844 26.128906 49.960938 26.375 49.988281 C 26.457031 50.011719 26.546875 50.011719 26.632812 49.988281 C 26.898438 49.953125 27.140625 49.8125 27.304688 49.597656 L 36.714844 36.894531 L 48.910156 45.804688 C 49.050781 45.910156 49.21875 45.976562 49.390625 45.992188 C 49.46875 46.011719 49.546875 46.011719 49.625 45.992188 C 49.941406 45.953125 50.21875 45.765625 50.375 45.484375 L 54.859375 37.414062 L 59.464844 40.34375 C 59.886719 40.613281 60.441406 40.527344 60.765625 40.144531 L 65.515625 34.53125 L 71.75 41.65625 C 71.910156 41.84375 72.132812 41.960938 72.378906 41.992188 C 72.460938 42.011719 72.546875 42.011719 72.628906 41.988281 C 73.007812 41.941406 73.328125 41.679688 73.449219 41.316406 L 78.339844 26.640625 L 85.554688 21.832031 C 85.933594 21.589844 86.101562 21.121094 85.96875 20.695312 C 85.832031 20.265625 85.429688 19.976562 84.980469 19.992188 Z M 26.492188 23.992188 C 26.359375 23.996094 26.234375 24.050781 26.140625 24.144531 C 26.046875 24.238281 25.996094 24.367188 26 24.5 L 26 25.5 C 25.996094 25.679688 26.09375 25.847656 26.246094 25.9375 C 26.402344 26.03125 26.597656 26.03125 26.753906 25.9375 C 26.90625 25.847656 27.003906 25.679688 27 25.5 L 27 24.5 C 27.003906 24.363281 26.949219 24.234375 26.855469 24.136719 C 26.757812 24.042969 26.628906 23.988281 26.492188 23.992188 Z M 49.492188 23.992188 C 49.359375 23.996094 49.234375 24.050781 49.140625 24.144531 C 49.046875 24.238281 48.996094 24.367188 49 24.5 L 49 25.5 C 48.996094 25.679688 49.09375 25.847656 49.246094 25.9375 C 49.402344 26.03125 49.597656 26.03125 49.753906 25.9375 C 49.90625 25.847656 50.003906 25.679688 50 25.5 L 50 24.5 C 50.003906 24.363281 49.949219 24.234375 49.855469 24.136719 C 49.757812 24.042969 49.628906 23.988281 49.492188 23.992188 Z M 72.492188 23.992188 C 72.359375 23.996094 72.234375 24.050781 72.140625 24.144531 C 72.046875 24.238281 71.996094 24.367188 72 24.5 L 72 25.5 C 71.996094 25.679688 72.09375 25.847656 72.246094 25.9375 C 72.402344 26.03125 72.597656 26.03125 72.753906 25.9375 C 72.90625 25.847656 73.003906 25.679688 73 25.5 L 73 24.5 C 73.003906 24.363281 72.949219 24.234375 72.855469 24.136719 C 72.757812 24.042969 72.628906 23.988281 72.492188 23.992188 Z M 26.492188 27.992188 C 26.359375 27.996094 26.234375 28.050781 26.140625 28.144531 C 26.046875 28.238281 25.996094 28.367188 26 28.5 L 26 29.5 C 25.996094 29.679688 26.09375 29.847656 26.246094 29.9375 C 26.402344 30.03125 26.597656 30.03125 26.753906 29.9375 C 26.90625 29.847656 27.003906 29.679688 27 29.5 L 27 28.5 C 27.003906 28.363281 26.949219 28.234375 26.855469 28.136719 C 26.757812 28.042969 26.628906 27.988281 26.492188 27.992188 Z M 49.492188 27.992188 C 49.359375 27.996094 49.234375 28.050781 49.140625 28.144531 C 49.046875 28.238281 48.996094 28.367188 49 28.5 L 49 29.5 C 48.996094 29.679688 49.09375 29.847656 49.246094 29.9375 C 49.402344 30.03125 49.597656 30.03125 49.753906 29.9375 C 49.90625 29.847656 50.003906 29.679688 50 29.5 L 50 28.5 C 50.003906 28.363281 49.949219 28.234375 49.855469 28.136719 C 49.757812 28.042969 49.628906 27.988281 49.492188 27.992188 Z M 72.492188 27.992188 C 72.359375 27.996094 72.234375 28.050781 72.140625 28.144531 C 72.046875 28.238281 71.996094 28.367188 72 28.5 L 72 29.5 C 71.996094 29.679688 72.09375 29.847656 72.246094 29.9375 C 72.402344 30.03125 72.597656 30.03125 72.753906 29.9375 C 72.90625 29.847656 73.003906 29.679688 73 29.5 L 73 28.5 C 73.003906 28.363281 72.949219 28.234375 72.855469 28.136719 C 72.757812 28.042969 72.628906 27.988281 72.492188 27.992188 Z M 26.492188 31.992188 C 26.359375 31.996094 26.234375 32.050781 26.140625 32.144531 C 26.046875 32.238281 25.996094 32.367188 26 32.5 L 26 33.5 C 25.996094 33.679688 26.09375 33.847656 26.246094 33.9375 C 26.402344 34.03125 26.597656 34.03125 26.753906 33.9375 C 26.90625 33.847656 27.003906 33.679688 27 33.5 L 27 32.5 C 27.003906 32.363281 26.949219 32.234375 26.855469 32.136719 C 26.757812 32.042969 26.628906 31.988281 26.492188 31.992188 Z M 49.492188 31.992188 C 49.359375 31.996094 49.234375 32.050781 49.140625 32.144531 C 49.046875 32.238281 48.996094 32.367188 49 32.5 L 49 33.5 C 48.996094 33.679688 49.09375 33.847656 49.246094 33.9375 C 49.402344 34.03125 49.597656 34.03125 49.753906 33.9375 C 49.90625 33.847656 50.003906 33.679688 50 33.5 L 50 32.5 C 50.003906 32.363281 49.949219 32.234375 49.855469 32.136719 C 49.757812 32.042969 49.628906 31.988281 49.492188 31.992188 Z M 72.492188 31.992188 C 72.359375 31.996094 72.234375 32.050781 72.140625 32.144531 C 72.046875 32.238281 71.996094 32.367188 72 32.5 L 72 33.5 C 71.996094 33.679688 72.09375 33.847656 72.246094 33.9375 C 72.402344 34.03125 72.597656 34.03125 72.753906 33.9375 C 72.90625 33.847656 73.003906 33.679688 73 33.5 L 73 32.5 C 73.003906 32.363281 72.949219 32.234375 72.855469 32.136719 C 72.757812 32.042969 72.628906 31.988281 72.492188 31.992188 Z M 26.492188 35.992188 C 26.359375 35.996094 26.234375 36.050781 26.140625 36.144531 C 26.046875 36.238281 25.996094 36.367188 26 36.5 L 26 37.5 C 25.996094 37.679688 26.09375 37.847656 26.246094 37.9375 C 26.402344 38.03125 26.597656 38.03125 26.753906 37.9375 C 26.90625 37.847656 27.003906 37.679688 27 37.5 L 27 36.5 C 27.003906 36.363281 26.949219 36.234375 26.855469 36.136719 C 26.757812 36.042969 26.628906 35.988281 26.492188 35.992188 Z M 49.492188 35.992188 C 49.359375 35.996094 49.234375 36.050781 49.140625 36.144531 C 49.046875 36.238281 48.996094 36.367188 49 36.5 L 49 37.5 C 48.996094 37.679688 49.09375 37.847656 49.246094 37.9375 C 49.402344 38.03125 49.597656 38.03125 49.753906 37.9375 C 49.90625 37.847656 50.003906 37.679688 50 37.5 L 50 36.5 C 50.003906 36.363281 49.949219 36.234375 49.855469 36.136719 C 49.757812 36.042969 49.628906 35.988281 49.492188 35.992188 Z M 26.492188 39.992188 C 26.359375 39.996094 26.234375 40.050781 26.140625 40.144531 C 26.046875 40.238281 25.996094 40.367188 26 40.5 L 26 41.5 C 25.996094 41.679688 26.09375 41.847656 26.246094 41.9375 C 26.402344 42.03125 26.597656 42.03125 26.753906 41.9375 C 26.90625 41.847656 27.003906 41.679688 27 41.5 L 27 40.5 C 27.003906 40.363281 26.949219 40.234375 26.855469 40.136719 C 26.757812 40.042969 26.628906 39.988281 26.492188 39.992188 Z M 49.492188 39.992188 C 49.359375 39.996094 49.234375 40.050781 49.140625 40.144531 C 49.046875 40.238281 48.996094 40.367188 49 40.5 L 49 41.5 C 48.996094 41.679688 49.09375 41.847656 49.246094 41.9375 C 49.402344 42.03125 49.597656 42.03125 49.753906 41.9375 C 49.90625 41.847656 50.003906 41.679688 50 41.5 L 50 40.5 C 50.003906 40.363281 49.949219 40.234375 49.855469 40.136719 C 49.757812 40.042969 49.628906 39.988281 49.492188 39.992188 Z M 26.492188 43.992188 C 26.359375 43.996094 26.234375 44.050781 26.140625 44.144531 C 26.046875 44.238281 25.996094 44.367188 26 44.5 L 26 45.5 C 25.996094 45.679688 26.09375 45.847656 26.246094 45.9375 C 26.402344 46.03125 26.597656 46.03125 26.753906 45.9375 C 26.90625 45.847656 27.003906 45.679688 27 45.5 L 27 44.5 C 27.003906 44.363281 26.949219 44.234375 26.855469 44.136719 C 26.757812 44.042969 26.628906 43.988281 26.492188 43.992188 Z M 72.492188 43.992188 C 72.359375 43.996094 72.234375 44.050781 72.140625 44.144531 C 72.046875 44.238281 71.996094 44.367188 72 44.5 L 72 45.5 C 71.996094 45.679688 72.09375 45.847656 72.246094 45.9375 C 72.402344 46.03125 72.597656 46.03125 72.753906 45.9375 C 72.90625 45.847656 73.003906 45.679688 73 45.5 L 73 44.5 C 73.003906 44.363281 72.949219 44.234375 72.855469 44.136719 C 72.757812 44.042969 72.628906 43.988281 72.492188 43.992188 Z M 49.492188 47.992188 C 49.359375 47.996094 49.234375 48.050781 49.140625 48.144531 C 49.046875 48.238281 48.996094 48.367188 49 48.5 L 49 49.5 C 48.996094 49.679688 49.09375 49.847656 49.246094 49.9375 C 49.402344 50.03125 49.597656 50.03125 49.753906 49.9375 C 49.90625 49.847656 50.003906 49.679688 50 49.5 L 50 48.5 C 50.003906 48.363281 49.949219 48.234375 49.855469 48.136719 C 49.757812 48.042969 49.628906 47.988281 49.492188 47.992188 Z M 72.492188 47.992188 C 72.359375 47.996094 72.234375 48.050781 72.140625 48.144531 C 72.046875 48.238281 71.996094 48.367188 72 48.5 L 72 49.5 C 71.996094 49.679688 72.09375 49.847656 72.246094 49.9375 C 72.402344 50.03125 72.597656 50.03125 72.753906 49.9375 C 72.90625 49.847656 73.003906 49.679688 73 49.5 L 73 48.5 C 73.003906 48.363281 72.949219 48.234375 72.855469 48.136719 C 72.757812 48.042969 72.628906 47.988281 72.492188 47.992188 Z M 26.492188 51.992188 C 26.359375 51.996094 26.234375 52.050781 26.140625 52.144531 C 26.046875 52.238281 25.996094 52.367188 26 52.5 L 26 53.5 C 25.996094 53.679688 26.09375 53.847656 26.246094 53.9375 C 26.402344 54.03125 26.597656 54.03125 26.753906 53.9375 C 26.90625 53.847656 27.003906 53.679688 27 53.5 L 27 52.5 C 27.003906 52.363281 26.949219 52.234375 26.855469 52.136719 C 26.757812 52.042969 26.628906 51.988281 26.492188 51.992188 Z M 49.492188 51.992188 C 49.359375 51.996094 49.234375 52.050781 49.140625 52.144531 C 49.046875 52.238281 48.996094 52.367188 49 52.5 L 49 53.5 C 48.996094 53.679688 49.09375 53.847656 49.246094 53.9375 C 49.402344 54.03125 49.597656 54.03125 49.753906 53.9375 C 49.90625 53.847656 50.003906 53.679688 50 53.5 L 50 52.5 C 50.003906 52.363281 49.949219 52.234375 49.855469 52.136719 C 49.757812 52.042969 49.628906 51.988281 49.492188 51.992188 Z M 72.492188 51.992188 C 72.359375 51.996094 72.234375 52.050781 72.140625 52.144531 C 72.046875 52.238281 71.996094 52.367188 72 52.5 L 72 53.5 C 71.996094 53.679688 72.09375 53.847656 72.246094 53.9375 C 72.402344 54.03125 72.597656 54.03125 72.753906 53.9375 C 72.90625 53.847656 73.003906 53.679688 73 53.5 L 73 52.5 C 73.003906 52.363281 72.949219 52.234375 72.855469 52.136719 C 72.757812 52.042969 72.628906 51.988281 72.492188 51.992188 Z M 26.492188 55.992188 C 26.359375 55.996094 26.234375 56.050781 26.140625 56.144531 C 26.046875 56.238281 25.996094 56.367188 26 56.5 L 26 57.5 C 25.996094 57.679688 26.09375 57.847656 26.246094 57.9375 C 26.402344 58.03125 26.597656 58.03125 26.753906 57.9375 C 26.90625 57.847656 27.003906 57.679688 27 57.5 L 27 56.5 C 27.003906 56.363281 26.949219 56.234375 26.855469 56.136719 C 26.757812 56.042969 26.628906 55.988281 26.492188 55.992188 Z M 49.492188 55.992188 C 49.359375 55.996094 49.234375 56.050781 49.140625 56.144531 C 49.046875 56.238281 48.996094 56.367188 49 56.5 L 49 57.5 C 48.996094 57.679688 49.09375 57.847656 49.246094 57.9375 C 49.402344 58.03125 49.597656 58.03125 49.753906 57.9375 C 49.90625 57.847656 50.003906 57.679688 50 57.5 L 50 56.5 C 50.003906 56.363281 49.949219 56.234375 49.855469 56.136719 C 49.757812 56.042969 49.628906 55.988281 49.492188 55.992188 Z M 72.492188 55.992188 C 72.359375 55.996094 72.234375 56.050781 72.140625 56.144531 C 72.046875 56.238281 71.996094 56.367188 72 56.5 L 72 57.5 C 71.996094 57.679688 72.09375 57.847656 72.246094 57.9375 C 72.402344 58.03125 72.597656 58.03125 72.753906 57.9375 C 72.90625 57.847656 73.003906 57.679688 73 57.5 L 73 56.5 C 73.003906 56.363281 72.949219 56.234375 72.855469 56.136719 C 72.757812 56.042969 72.628906 55.988281 72.492188 55.992188 Z M 26.492188 59.992188 C 26.359375 59.996094 26.234375 60.050781 26.140625 60.144531 C 26.046875 60.238281 25.996094 60.367188 26 60.5 L 26 61.5 C 25.996094 61.679688 26.09375 61.847656 26.246094 61.9375 C 26.402344 62.03125 26.597656 62.03125 26.753906 61.9375 C 26.90625 61.847656 27.003906 61.679688 27 61.5 L 27 60.5 C 27.003906 60.363281 26.949219 60.234375 26.855469 60.136719 C 26.757812 60.042969 26.628906 59.988281 26.492188 59.992188 Z M 49.492188 59.992188 C 49.359375 59.996094 49.234375 60.050781 49.140625 60.144531 C 49.046875 60.238281 48.996094 60.367188 49 60.5 L 49 61.5 C 48.996094 61.679688 49.09375 61.847656 49.246094 61.9375 C 49.402344 62.03125 49.597656 62.03125 49.753906 61.9375 C 49.90625 61.847656 50.003906 61.679688 50 61.5 L 50 60.5 C 50.003906 60.363281 49.949219 60.234375 49.855469 60.136719 C 49.757812 60.042969 49.628906 59.988281 49.492188 59.992188 Z M 72.492188 59.992188 C 72.359375 59.996094 72.234375 60.050781 72.140625 60.144531 C 72.046875 60.238281 71.996094 60.367188 72 60.5 L 72 61.5 C 71.996094 61.679688 72.09375 61.847656 72.246094 61.9375 C 72.402344 62.03125 72.597656 62.03125 72.753906 61.9375 C 72.90625 61.847656 73.003906 61.679688 73 61.5 L 73 60.5 C 73.003906 60.363281 72.949219 60.234375 72.855469 60.136719 C 72.757812 60.042969 72.628906 59.988281 72.492188 59.992188 Z M 26.492188 63.992188 C 26.359375 63.996094 26.234375 64.050781 26.140625 64.144531 C 26.046875 64.238281 25.996094 64.367188 26 64.5 L 26 65.5 C 25.996094 65.679688 26.09375 65.847656 26.246094 65.9375 C 26.402344 66.03125 26.597656 66.03125 26.753906 65.9375 C 26.90625 65.847656 27.003906 65.679688 27 65.5 L 27 64.5 C 27.003906 64.363281 26.949219 64.234375 26.855469 64.136719 C 26.757812 64.042969 26.628906 63.988281 26.492188 63.992188 Z M 49.492188 63.992188 C 49.359375 63.996094 49.234375 64.050781 49.140625 64.144531 C 49.046875 64.238281 48.996094 64.367188 49 64.5 L 49 65.5 C 48.996094 65.679688 49.09375 65.847656 49.246094 65.9375 C 49.402344 66.03125 49.597656 66.03125 49.753906 65.9375 C 49.90625 65.847656 50.003906 65.679688 50 65.5 L 50 64.5 C 50.003906 64.363281 49.949219 64.234375 49.855469 64.136719 C 49.757812 64.042969 49.628906 63.988281 49.492188 63.992188 Z M 72.492188 63.992188 C 72.359375 63.996094 72.234375 64.050781 72.140625 64.144531 C 72.046875 64.238281 71.996094 64.367188 72 64.5 L 72 65.5 C 71.996094 65.679688 72.09375 65.847656 72.246094 65.9375 C 72.402344 66.03125 72.597656 66.03125 72.753906 65.9375 C 72.90625 65.847656 73.003906 65.679688 73 65.5 L 73 64.5 C 73.003906 64.363281 72.949219 64.234375 72.855469 64.136719 C 72.757812 64.042969 72.628906 63.988281 72.492188 63.992188 Z M 26.492188 67.992188 C 26.359375 67.996094 26.234375 68.050781 26.140625 68.144531 C 26.046875 68.238281 25.996094 68.367188 26 68.5 L 26 69.5 C 25.996094 69.679688 26.09375 69.847656 26.246094 69.9375 C 26.402344 70.03125 26.597656 70.03125 26.753906 69.9375 C 26.90625 69.847656 27.003906 69.679688 27 69.5 L 27 68.5 C 27.003906 68.363281 26.949219 68.234375 26.855469 68.136719 C 26.757812 68.042969 26.628906 67.988281 26.492188 67.992188 Z M 49.492188 67.992188 C 49.359375 67.996094 49.234375 68.050781 49.140625 68.144531 C 49.046875 68.238281 48.996094 68.367188 49 68.5 L 49 69.5 C 48.996094 69.679688 49.09375 69.847656 49.246094 69.9375 C 49.402344 70.03125 49.597656 70.03125 49.753906 69.9375 C 49.90625 69.847656 50.003906 69.679688 50 69.5 L 50 68.5 C 50.003906 68.363281 49.949219 68.234375 49.855469 68.136719 C 49.757812 68.042969 49.628906 67.988281 49.492188 67.992188 Z M 72.492188 67.992188 C 72.359375 67.996094 72.234375 68.050781 72.140625 68.144531 C 72.046875 68.238281 71.996094 68.367188 72 68.5 L 72 69.5 C 71.996094 69.679688 72.09375 69.847656 72.246094 69.9375 C 72.402344 70.03125 72.597656 70.03125 72.753906 69.9375 C 72.90625 69.847656 73.003906 69.679688 73 69.5 L 73 68.5 C 73.003906 68.363281 72.949219 68.234375 72.855469 68.136719 C 72.757812 68.042969 72.628906 67.988281 72.492188 67.992188 Z M 26.492188 71.992188 C 26.359375 71.996094 26.234375 72.050781 26.140625 72.144531 C 26.046875 72.238281 25.996094 72.367188 26 72.5 L 26 73.5 C 25.996094 73.679688 26.09375 73.847656 26.246094 73.9375 C 26.402344 74.03125 26.597656 74.03125 26.753906 73.9375 C 26.90625 73.847656 27.003906 73.679688 27 73.5 L 27 72.5 C 27.003906 72.363281 26.949219 72.234375 26.855469 72.136719 C 26.757812 72.042969 26.628906 71.988281 26.492188 71.992188 Z M 49.492188 71.992188 C 49.359375 71.996094 49.234375 72.050781 49.140625 72.144531 C 49.046875 72.238281 48.996094 72.367188 49 72.5 L 49 73.5 C 48.996094 73.679688 49.09375 73.847656 49.246094 73.9375 C 49.402344 74.03125 49.597656 74.03125 49.753906 73.9375 C 49.90625 73.847656 50.003906 73.679688 50 73.5 L 50 72.5 C 50.003906 72.363281 49.949219 72.234375 49.855469 72.136719 C 49.757812 72.042969 49.628906 71.988281 49.492188 71.992188 Z M 72.492188 71.992188 C 72.359375 71.996094 72.234375 72.050781 72.140625 72.144531 C 72.046875 72.238281 71.996094 72.367188 72 72.5 L 72 73.5 C 71.996094 73.679688 72.09375 73.847656 72.246094 73.9375 C 72.402344 74.03125 72.597656 74.03125 72.753906 73.9375 C 72.90625 73.847656 73.003906 73.679688 73 73.5 L 73 72.5 C 73.003906 72.363281 72.949219 72.234375 72.855469 72.136719 C 72.757812 72.042969 72.628906 71.988281 72.492188 71.992188 Z M 26.492188 75.992188 C 26.359375 75.996094 26.234375 76.050781 26.140625 76.144531 C 26.046875 76.238281 25.996094 76.367188 26 76.5 L 26 77.5 C 25.996094 77.679688 26.09375 77.847656 26.246094 77.9375 C 26.402344 78.03125 26.597656 78.03125 26.753906 77.9375 C 26.90625 77.847656 27.003906 77.679688 27 77.5 L 27 76.5 C 27.003906 76.363281 26.949219 76.234375 26.855469 76.136719 C 26.757812 76.042969 26.628906 75.988281 26.492188 75.992188 Z M 49.492188 75.992188 C 49.359375 75.996094 49.234375 76.050781 49.140625 76.144531 C 49.046875 76.238281 48.996094 76.367188 49 76.5 L 49 77.5 C 48.996094 77.679688 49.09375 77.847656 49.246094 77.9375 C 49.402344 78.03125 49.597656 78.03125 49.753906 77.9375 C 49.90625 77.847656 50.003906 77.679688 50 77.5 L 50 76.5 C 50.003906 76.363281 49.949219 76.234375 49.855469 76.136719 C 49.757812 76.042969 49.628906 75.988281 49.492188 75.992188 Z M 72.492188 75.992188 C 72.359375 75.996094 72.234375 76.050781 72.140625 76.144531 C 72.046875 76.238281 71.996094 76.367188 72 76.5 L 72 77.5 C 71.996094 77.679688 72.09375 77.847656 72.246094 77.9375 C 72.402344 78.03125 72.597656 78.03125 72.753906 77.9375 C 72.90625 77.847656 73.003906 77.679688 73 77.5 L 73 76.5 C 73.003906 76.363281 72.949219 76.234375 72.855469 76.136719 C 72.757812 76.042969 72.628906 75.988281 72.492188 75.992188 Z M 26.492188 79.992188 C 26.359375 79.996094 26.234375 80.050781 26.140625 80.144531 C 26.046875 80.238281 25.996094 80.367188 26 80.5 L 26 81.5 C 25.996094 81.679688 26.09375 81.847656 26.246094 81.9375 C 26.402344 82.03125 26.597656 82.03125 26.753906 81.9375 C 26.90625 81.847656 27.003906 81.679688 27 81.5 L 27 80.5 C 27.003906 80.363281 26.949219 80.234375 26.855469 80.136719 C 26.757812 80.042969 26.628906 79.988281 26.492188 79.992188 Z M 49.492188 79.992188 C 49.359375 79.996094 49.234375 80.050781 49.140625 80.144531 C 49.046875 80.238281 48.996094 80.367188 49 80.5 L 49 81.5 C 48.996094 81.679688 49.09375 81.847656 49.246094 81.9375 C 49.402344 82.03125 49.597656 82.03125 49.753906 81.9375 C 49.90625 81.847656 50.003906 81.679688 50 81.5 L 50 80.5 C 50.003906 80.363281 49.949219 80.234375 49.855469 80.136719 C 49.757812 80.042969 49.628906 79.988281 49.492188 79.992188 Z M 72.492188 79.992188 C 72.359375 79.996094 72.234375 80.050781 72.140625 80.144531 C 72.046875 80.238281 71.996094 80.367188 72 80.5 L 72 81.5 C 71.996094 81.679688 72.09375 81.847656 72.246094 81.9375 C 72.402344 82.03125 72.597656 82.03125 72.753906 81.9375 C 72.90625 81.847656 73.003906 81.679688 73 81.5 L 73 80.5 C 73.003906 80.363281 72.949219 80.234375 72.855469 80.136719 C 72.757812 80.042969 72.628906 79.988281 72.492188 79.992188 Z M 14 83 C 13.640625 82.996094 13.304688 83.183594 13.121094 83.496094 C 12.941406 83.808594 12.941406 84.191406 13.121094 84.503906 C 13.304688 84.816406 13.640625 85.003906 14 85 L 85 85 C 85.359375 85.003906 85.695312 84.816406 85.878906 84.503906 C 86.058594 84.191406 86.058594 83.808594 85.878906 83.496094 C 85.695312 83.183594 85.359375 82.996094 85 83 Z M 14 83 "/>
</g>
</svg>
