<?xml version="1.0" encoding="UTF-8"?>
<svg xmlns="http://www.w3.org/2000/svg" xmlns:xlink="http://www.w3.org/1999/xlink" width="100pt" height="100pt" viewBox="0 0 100 100" version="1.1">
<g id="surface22349">
<path style=" stroke:none;fill-rule:nonzero;fill:rgb(15.686275%,23.529412%,48.627451%);fill-opacity:1;" d="M 17.945312 17.96875 C 13.535156 17.96875 9.945312 21.558594 9.945312 25.96875 L 9.945312 65.96875 C 9.945312 66.105469 9.957031 66.234375 9.964844 66.367188 C 9.957031 66.402344 9.945312 66.433594 9.945312 66.46875 C 9.945312 66.527344 9.960938 66.582031 9.980469 66.636719 C 10.320312 70.734375 13.761719 73.96875 17.945312 73.96875 L 59.089844 73.96875 C 61.835938 76.445312 65.460938 77.96875 69.445312 77.96875 C 77.992188 77.96875 84.945312 71.015625 84.945312 62.46875 C 84.945312 57.972656 83.011719 53.933594 79.945312 51.101562 L 79.945312 25.96875 C 79.945312 21.558594 76.355469 17.96875 71.945312 17.96875 Z M 17.945312 19.96875 L 71.945312 19.96875 C 75.253906 19.96875 77.945312 22.660156 77.945312 25.96875 L 77.945312 29.96875 L 69.445312 29.96875 C 69.167969 29.96875 68.945312 30.191406 68.945312 30.46875 C 68.945312 30.746094 69.167969 30.96875 69.445312 30.96875 L 77.945312 30.96875 L 77.945312 49.519531 C 75.503906 47.914062 72.582031 46.96875 69.445312 46.96875 C 60.898438 46.96875 53.945312 53.921875 53.945312 62.46875 C 53.945312 66.050781 55.175781 69.339844 57.226562 71.96875 L 17.945312 71.96875 C 14.976562 71.96875 12.511719 69.800781 12.035156 66.96875 L 42.445312 66.96875 C 42.722656 66.96875 42.945312 66.746094 42.945312 66.46875 C 42.945312 66.191406 42.722656 65.96875 42.445312 65.96875 L 11.945312 65.96875 L 11.945312 30.96875 L 55.445312 30.96875 C 55.722656 30.96875 55.945312 30.746094 55.945312 30.46875 C 55.945312 30.191406 55.722656 29.96875 55.445312 29.96875 L 11.945312 29.96875 L 11.945312 25.96875 C 11.945312 22.660156 14.636719 19.96875 17.945312 19.96875 Z M 19.445312 22.96875 C 18.066406 22.96875 16.945312 24.089844 16.945312 25.46875 C 16.945312 26.847656 18.066406 27.96875 19.445312 27.96875 C 20.824219 27.96875 21.945312 26.847656 21.945312 25.46875 C 21.945312 24.089844 20.824219 22.96875 19.445312 22.96875 Z M 26.445312 22.96875 C 25.066406 22.96875 23.945312 24.089844 23.945312 25.46875 C 23.945312 26.847656 25.066406 27.96875 26.445312 27.96875 C 27.824219 27.96875 28.945312 26.847656 28.945312 25.46875 C 28.945312 24.089844 27.824219 22.96875 26.445312 22.96875 Z M 33.445312 22.96875 C 32.066406 22.96875 30.945312 24.089844 30.945312 25.46875 C 30.945312 26.847656 32.066406 27.96875 33.445312 27.96875 C 34.824219 27.96875 35.945312 26.847656 35.945312 25.46875 C 35.945312 24.089844 34.824219 22.96875 33.445312 22.96875 Z M 19.445312 23.96875 C 20.273438 23.96875 20.945312 24.640625 20.945312 25.46875 C 20.945312 26.296875 20.273438 26.96875 19.445312 26.96875 C 18.617188 26.96875 17.945312 26.296875 17.945312 25.46875 C 17.945312 24.640625 18.617188 23.96875 19.445312 23.96875 Z M 26.445312 23.96875 C 27.273438 23.96875 27.945312 24.640625 27.945312 25.46875 C 27.945312 26.296875 27.273438 26.96875 26.445312 26.96875 C 25.617188 26.96875 24.945312 26.296875 24.945312 25.46875 C 24.945312 24.640625 25.617188 23.96875 26.445312 23.96875 Z M 33.445312 23.96875 C 34.273438 23.96875 34.945312 24.640625 34.945312 25.46875 C 34.945312 26.296875 34.273438 26.96875 33.445312 26.96875 C 32.617188 26.96875 31.945312 26.296875 31.945312 25.46875 C 31.945312 24.640625 32.617188 23.96875 33.445312 23.96875 Z M 58.445312 29.96875 C 58.167969 29.96875 57.945312 30.191406 57.945312 30.46875 C 57.945312 30.746094 58.167969 30.96875 58.445312 30.96875 L 64.445312 30.96875 C 64.722656 30.96875 64.945312 30.746094 64.945312 30.46875 C 64.945312 30.191406 64.722656 29.96875 64.445312 29.96875 Z M 69.445312 48.96875 C 76.890625 48.96875 82.945312 55.023438 82.945312 62.46875 C 82.945312 69.914062 76.890625 75.96875 69.445312 75.96875 C 62 75.96875 55.945312 69.914062 55.945312 62.46875 C 55.945312 55.023438 62 48.96875 69.445312 48.96875 Z M 69.421875 53.96875 C 69.164062 53.96875 68.949219 54.164062 68.925781 54.421875 C 68.8125 55.679688 67.316406 56.660156 65.515625 56.660156 C 64.859375 56.660156 64.214844 56.527344 63.652344 56.265625 C 63.5 56.195312 63.320312 56.207031 63.175781 56.300781 C 63.03125 56.394531 62.945312 56.550781 62.945312 56.722656 L 62.945312 65.027344 C 62.945312 66.210938 63.945312 67.476562 65.917969 68.789062 C 65.945312 68.808594 68.277344 70.28125 69.269531 70.570312 L 69.253906 70.601562 C 69.300781 70.621094 69.363281 70.625 69.445312 70.609375 C 69.480469 70.617188 69.515625 70.617188 69.542969 70.617188 C 69.582031 70.617188 69.613281 70.613281 69.640625 70.601562 L 69.621094 70.570312 C 70.613281 70.277344 72.945312 68.808594 72.976562 68.789062 C 74.945312 67.476562 75.949219 66.210938 75.949219 65.027344 L 75.949219 56.722656 C 75.949219 56.550781 75.859375 56.394531 75.714844 56.300781 C 75.570312 56.207031 75.390625 56.195312 75.234375 56.265625 C 74.675781 56.523438 74.03125 56.660156 73.371094 56.660156 C 71.574219 56.660156 70.078125 55.679688 69.964844 54.421875 C 69.941406 54.164062 69.683594 53.96875 69.421875 53.96875 Z M 69.445312 55.824219 C 70.183594 56.917969 71.675781 57.664062 73.371094 57.664062 C 73.910156 57.664062 74.445312 57.585938 74.945312 57.441406 L 74.945312 65.027344 C 74.945312 66.722656 71.089844 68.882812 69.445312 69.601562 C 67.800781 68.882812 63.945312 66.722656 63.945312 65.027344 L 63.945312 57.441406 C 64.445312 57.585938 64.980469 57.664062 65.519531 57.664062 C 67.214844 57.664062 68.707031 56.917969 69.445312 55.824219 Z M 45.445312 65.96875 C 45.167969 65.96875 44.945312 66.191406 44.945312 66.46875 C 44.945312 66.746094 45.167969 66.96875 45.445312 66.96875 L 50.445312 66.96875 C 50.722656 66.96875 50.945312 66.746094 50.945312 66.46875 C 50.945312 66.191406 50.722656 65.96875 50.445312 65.96875 Z M 45.445312 65.96875 "/>
</g>
</svg>
