<?xml version="1.0" encoding="UTF-8"?>
<svg xmlns="http://www.w3.org/2000/svg" xmlns:xlink="http://www.w3.org/1999/xlink" width="100pt" height="100pt" viewBox="0 0 100 100" version="1.1">
<g id="surface4763498">
<path style=" stroke:none;fill-rule:nonzero;fill:rgb(15.686275%,23.529412%,48.627451%);fill-opacity:1;" d="M 68.824219 21.007812 C 67.542969 21.050781 66.28125 21.585938 65.339844 22.59375 L 37.910156 52.035156 L 34.636719 48.570312 C 32.742188 46.5625 29.574219 46.472656 27.570312 48.367188 C 26.597656 49.28125 26.042969 50.519531 26.003906 51.859375 C 25.964844 53.191406 26.449219 54.460938 27.363281 55.433594 L 31.078125 59.363281 L 27.976562 62.691406 L 14.636719 48.570312 C 12.742188 46.5625 9.574219 46.472656 7.566406 48.367188 C 6.597656 49.28125 6.042969 50.519531 6.003906 51.859375 C 5.964844 53.191406 6.449219 54.460938 7.363281 55.433594 L 24.363281 73.433594 C 25.304688 74.429688 26.628906 75 28 75 L 28.015625 75 C 29.390625 74.996094 30.71875 74.414062 31.65625 73.410156 L 37.957031 66.648438 L 44.363281 73.433594 C 45.304688 74.429688 46.628906 75 48.015625 75 C 49.390625 74.996094 50.71875 74.414062 51.65625 73.410156 L 92.65625 29.410156 C 94.535156 27.390625 94.425781 24.222656 92.40625 22.34375 C 90.390625 20.460938 87.222656 20.574219 85.339844 22.59375 L 47.976562 62.691406 L 44.785156 59.320312 L 72.65625 29.410156 C 74.539062 27.390625 74.425781 24.222656 72.40625 22.34375 C 71.398438 21.402344 70.101562 20.960938 68.820312 21.007812 Z M 68.894531 23.003906 C 69.660156 22.976562 70.441406 23.242188 71.046875 23.804688 C 72.257812 24.933594 72.324219 26.835938 71.195312 28.042969 L 30.195312 72.042969 C 29.632812 72.648438 28.835938 72.996094 28.011719 73 L 28 73 C 27.179688 73 26.382812 72.65625 25.816406 72.058594 L 8.816406 54.058594 C 8.269531 53.480469 7.980469 52.714844 8 51.914062 C 8.023438 51.113281 8.355469 50.367188 8.9375 49.816406 C 9.519531 49.269531 10.257812 49 10.996094 49 C 11.796875 49 12.589844 49.316406 13.179688 49.9375 L 27.253906 64.839844 C 27.441406 65.039062 27.703125 65.152344 27.980469 65.152344 L 27.984375 65.152344 C 28.261719 65.152344 28.523438 65.039062 28.710938 64.835938 L 66.804688 23.953125 C 67.371094 23.347656 68.128906 23.027344 68.894531 23 Z M 88.894531 23.003906 C 89.660156 22.976562 90.441406 23.242188 91.046875 23.804688 C 92.257812 24.933594 92.324219 26.835938 91.195312 28.042969 L 50.195312 72.042969 C 49.632812 72.648438 48.835938 72.996094 48 73 C 47.179688 73 46.382812 72.65625 45.816406 72.058594 L 39.320312 65.183594 L 43.421875 60.78125 L 47.253906 64.839844 C 47.441406 65.042969 47.703125 65.152344 47.980469 65.152344 L 47.984375 65.152344 C 48.261719 65.152344 48.523438 65.039062 48.710938 64.835938 L 86.804688 23.953125 C 87.371094 23.347656 88.128906 23.03125 88.894531 23.003906 Z M 87.339844 28 C 87.210938 28.003906 87.085938 28.058594 86.988281 28.160156 L 86.136719 29.078125 C 85.945312 29.28125 85.957031 29.597656 86.160156 29.785156 C 86.253906 29.875 86.378906 29.921875 86.5 29.921875 C 86.632812 29.921875 86.765625 29.867188 86.863281 29.761719 L 87.722656 28.839844 C 87.910156 28.640625 87.898438 28.324219 87.699219 28.136719 C 87.597656 28.039062 87.46875 27.996094 87.339844 28 Z M 84.484375 31.066406 C 84.355469 31.070312 84.230469 31.125 84.136719 31.226562 L 81.402344 34.160156 C 81.210938 34.359375 81.222656 34.675781 81.425781 34.863281 C 81.523438 34.957031 81.644531 35 81.769531 35 C 81.902344 35 82.035156 34.945312 82.132812 34.839844 L 84.867188 31.90625 C 85.054688 31.703125 85.042969 31.386719 84.84375 31.199219 C 84.742188 31.105469 84.609375 31.0625 84.484375 31.066406 Z M 79.984375 35.894531 C 79.855469 35.902344 79.730469 35.953125 79.636719 36.054688 L 48.003906 69.996094 L 42.863281 64.554688 C 42.675781 64.355469 42.355469 64.34375 42.15625 64.535156 C 41.957031 64.722656 41.949219 65.039062 42.136719 65.238281 L 47.269531 70.675781 C 47.453125 70.882812 47.722656 71 48.011719 71 C 48.269531 71 48.53125 70.890625 48.738281 70.679688 L 80.367188 36.734375 C 80.554688 36.535156 80.542969 36.21875 80.34375 36.027344 C 80.242188 35.933594 80.109375 35.890625 79.984375 35.894531 Z M 56.984375 39.113281 C 56.855469 39.121094 56.730469 39.171875 56.636719 39.273438 L 33.445312 64.160156 C 33.257812 64.359375 33.269531 64.675781 33.472656 64.863281 C 33.566406 64.957031 33.691406 65 33.8125 65 C 33.945312 65 34.078125 64.945312 34.175781 64.839844 L 57.363281 39.953125 C 57.554688 39.753906 57.542969 39.4375 57.339844 39.246094 C 57.242188 39.15625 57.109375 39.109375 56.984375 39.113281 Z M 31.085938 49.003906 C 31.855469 49.027344 32.613281 49.339844 33.179688 49.941406 L 36.542969 53.496094 L 32.441406 57.894531 L 28.820312 54.058594 C 28.269531 53.480469 27.980469 52.714844 28.003906 51.914062 C 28.023438 51.113281 28.355469 50.367188 28.941406 49.820312 C 29.542969 49.25 30.316406 48.980469 31.085938 49.003906 Z M 31.984375 65.945312 C 31.855469 65.949219 31.730469 66.003906 31.636719 66.105469 L 30.648438 67.160156 C 30.460938 67.363281 30.472656 67.679688 30.675781 67.867188 C 30.773438 67.957031 30.894531 68 31.015625 68 C 31.152344 68 31.285156 67.945312 31.382812 67.84375 L 32.363281 66.785156 C 32.554688 66.582031 32.542969 66.265625 32.339844 66.078125 C 32.242188 65.984375 32.109375 65.941406 31.984375 65.945312 Z M 31.984375 65.945312 "/>
</g>
</svg>
